<?xml version="1.0" encoding="utf-8" standalone="no"?>
<!DOCTYPE svg PUBLIC "-//W3C//DTD SVG 1.1//EN"
  "http://www.w3.org/Graphics/SVG/1.1/DTD/svg11.dtd">
<svg xmlns:xlink="http://www.w3.org/1999/xlink" width="720pt" height="432pt" viewBox="0 0 720 432" xmlns="http://www.w3.org/2000/svg" version="1.1">
 <metadata>
  <rdf:RDF xmlns:dc="http://purl.org/dc/elements/1.1/" xmlns:cc="http://creativecommons.org/ns#" xmlns:rdf="http://www.w3.org/1999/02/22-rdf-syntax-ns#">
   <cc:Work>
    <dc:type rdf:resource="http://purl.org/dc/dcmitype/StillImage"/>
    <dc:date>2025-05-23T10:03:19.116824</dc:date>
    <dc:format>image/svg+xml</dc:format>
    <dc:creator>
     <cc:Agent>
      <dc:title>Matplotlib v3.10.3, https://matplotlib.org/</dc:title>
     </cc:Agent>
    </dc:creator>
   </cc:Work>
  </rdf:RDF>
 </metadata>
 <defs>
  <style type="text/css">*{stroke-linejoin: round; stroke-linecap: butt}</style>
 </defs>
 <g id="figure_1">
  <g id="patch_1">
   <path d="M 0 432 
L 720 432 
L 720 0 
L 0 0 
z
" style="fill: #ffffff"/>
  </g>
  <g id="axes_1">
   <g id="patch_2">
    <path d="M 62.3 179.44 
L 239.58 179.44 
L 239.58 10.8 
L 62.3 10.8 
z
" style="fill: #ffffff"/>
   </g>
   <g id="matplotlib.axis_1">
    <g id="xtick_1">
     <g id="line2d_1">
      <path d="M 70.358182 179.44 
L 70.358182 10.8 
" clip-path="url(#p46248bc9d5)" style="fill: none; stroke: #b0b0b0; stroke-width: 0.8; stroke-linecap: square"/>
     </g>
     <g id="line2d_2">
      <defs>
       <path id="m6abe81435c" d="M 0 0 
L 0 3.5 
" style="stroke: #000000; stroke-width: 0.8"/>
      </defs>
      <g>
       <use xlink:href="#m6abe81435c" x="70.358182" y="179.44" style="stroke: #000000; stroke-width: 0.8"/>
      </g>
     </g>
     <g id="text_1">
      <!-- 0 -->
      <g transform="translate(67.176932 194.038437) scale(0.1 -0.1)">
       <defs>
        <path id="DejaVuSans-30" d="M 2034 4250 
Q 1547 4250 1301 3770 
Q 1056 3291 1056 2328 
Q 1056 1369 1301 889 
Q 1547 409 2034 409 
Q 2525 409 2770 889 
Q 3016 1369 3016 2328 
Q 3016 3291 2770 3770 
Q 2525 4250 2034 4250 
z
M 2034 4750 
Q 2819 4750 3233 4129 
Q 3647 3509 3647 2328 
Q 3647 1150 3233 529 
Q 2819 -91 2034 -91 
Q 1250 -91 836 529 
Q 422 1150 422 2328 
Q 422 3509 836 4129 
Q 1250 4750 2034 4750 
z
" transform="scale(0.015625)"/>
       </defs>
       <use xlink:href="#DejaVuSans-30"/>
      </g>
     </g>
    </g>
    <g id="xtick_2">
     <g id="line2d_3">
      <path d="M 110.649091 179.44 
L 110.649091 10.8 
" clip-path="url(#p46248bc9d5)" style="fill: none; stroke: #b0b0b0; stroke-width: 0.8; stroke-linecap: square"/>
     </g>
     <g id="line2d_4">
      <g>
       <use xlink:href="#m6abe81435c" x="110.649091" y="179.44" style="stroke: #000000; stroke-width: 0.8"/>
      </g>
     </g>
     <g id="text_2">
      <!-- 5 -->
      <g transform="translate(107.467841 194.038437) scale(0.1 -0.1)">
       <defs>
        <path id="DejaVuSans-35" d="M 691 4666 
L 3169 4666 
L 3169 4134 
L 1269 4134 
L 1269 2991 
Q 1406 3038 1543 3061 
Q 1681 3084 1819 3084 
Q 2600 3084 3056 2656 
Q 3513 2228 3513 1497 
Q 3513 744 3044 326 
Q 2575 -91 1722 -91 
Q 1428 -91 1123 -41 
Q 819 9 494 109 
L 494 744 
Q 775 591 1075 516 
Q 1375 441 1709 441 
Q 2250 441 2565 725 
Q 2881 1009 2881 1497 
Q 2881 1984 2565 2268 
Q 2250 2553 1709 2553 
Q 1456 2553 1204 2497 
Q 953 2441 691 2322 
L 691 4666 
z
" transform="scale(0.015625)"/>
       </defs>
       <use xlink:href="#DejaVuSans-35"/>
      </g>
     </g>
    </g>
    <g id="xtick_3">
     <g id="line2d_5">
      <path d="M 150.94 179.44 
L 150.94 10.8 
" clip-path="url(#p46248bc9d5)" style="fill: none; stroke: #b0b0b0; stroke-width: 0.8; stroke-linecap: square"/>
     </g>
     <g id="line2d_6">
      <g>
       <use xlink:href="#m6abe81435c" x="150.94" y="179.44" style="stroke: #000000; stroke-width: 0.8"/>
      </g>
     </g>
     <g id="text_3">
      <!-- 10 -->
      <g transform="translate(144.5775 194.038437) scale(0.1 -0.1)">
       <defs>
        <path id="DejaVuSans-31" d="M 794 531 
L 1825 531 
L 1825 4091 
L 703 3866 
L 703 4441 
L 1819 4666 
L 2450 4666 
L 2450 531 
L 3481 531 
L 3481 0 
L 794 0 
L 794 531 
z
" transform="scale(0.015625)"/>
       </defs>
       <use xlink:href="#DejaVuSans-31"/>
       <use xlink:href="#DejaVuSans-30" transform="translate(63.623047 0)"/>
      </g>
     </g>
    </g>
    <g id="xtick_4">
     <g id="line2d_7">
      <path d="M 191.230909 179.44 
L 191.230909 10.8 
" clip-path="url(#p46248bc9d5)" style="fill: none; stroke: #b0b0b0; stroke-width: 0.8; stroke-linecap: square"/>
     </g>
     <g id="line2d_8">
      <g>
       <use xlink:href="#m6abe81435c" x="191.230909" y="179.44" style="stroke: #000000; stroke-width: 0.8"/>
      </g>
     </g>
     <g id="text_4">
      <!-- 15 -->
      <g transform="translate(184.868409 194.038437) scale(0.1 -0.1)">
       <use xlink:href="#DejaVuSans-31"/>
       <use xlink:href="#DejaVuSans-35" transform="translate(63.623047 0)"/>
      </g>
     </g>
    </g>
    <g id="xtick_5">
     <g id="line2d_9">
      <path d="M 231.521818 179.44 
L 231.521818 10.8 
" clip-path="url(#p46248bc9d5)" style="fill: none; stroke: #b0b0b0; stroke-width: 0.8; stroke-linecap: square"/>
     </g>
     <g id="line2d_10">
      <g>
       <use xlink:href="#m6abe81435c" x="231.521818" y="179.44" style="stroke: #000000; stroke-width: 0.8"/>
      </g>
     </g>
     <g id="text_5">
      <!-- 20 -->
      <g transform="translate(225.159318 194.038437) scale(0.1 -0.1)">
       <defs>
        <path id="DejaVuSans-32" d="M 1228 531 
L 3431 531 
L 3431 0 
L 469 0 
L 469 531 
Q 828 903 1448 1529 
Q 2069 2156 2228 2338 
Q 2531 2678 2651 2914 
Q 2772 3150 2772 3378 
Q 2772 3750 2511 3984 
Q 2250 4219 1831 4219 
Q 1534 4219 1204 4116 
Q 875 4013 500 3803 
L 500 4441 
Q 881 4594 1212 4672 
Q 1544 4750 1819 4750 
Q 2544 4750 2975 4387 
Q 3406 4025 3406 3419 
Q 3406 3131 3298 2873 
Q 3191 2616 2906 2266 
Q 2828 2175 2409 1742 
Q 1991 1309 1228 531 
z
" transform="scale(0.015625)"/>
       </defs>
       <use xlink:href="#DejaVuSans-32"/>
       <use xlink:href="#DejaVuSans-30" transform="translate(63.623047 0)"/>
      </g>
     </g>
    </g>
    <g id="text_6">
     <!-- t -->
     <g transform="translate(148.979844 207.716562) scale(0.1 -0.1)">
      <defs>
       <path id="DejaVuSans-74" d="M 1172 4494 
L 1172 3500 
L 2356 3500 
L 2356 3053 
L 1172 3053 
L 1172 1153 
Q 1172 725 1289 603 
Q 1406 481 1766 481 
L 2356 481 
L 2356 0 
L 1766 0 
Q 1100 0 847 248 
Q 594 497 594 1153 
L 594 3053 
L 172 3053 
L 172 3500 
L 594 3500 
L 594 4494 
L 1172 4494 
z
" transform="scale(0.015625)"/>
      </defs>
      <use xlink:href="#DejaVuSans-74"/>
     </g>
    </g>
   </g>
   <g id="matplotlib.axis_2">
    <g id="ytick_1">
     <g id="line2d_11">
      <path d="M 62.3 160.042016 
L 239.58 160.042016 
" clip-path="url(#p46248bc9d5)" style="fill: none; stroke: #b0b0b0; stroke-width: 0.8; stroke-linecap: square"/>
     </g>
     <g id="line2d_12">
      <defs>
       <path id="mcf77b86fe5" d="M 0 0 
L -3.5 0 
" style="stroke: #000000; stroke-width: 0.8"/>
      </defs>
      <g>
       <use xlink:href="#mcf77b86fe5" x="62.3" y="160.042016" style="stroke: #000000; stroke-width: 0.8"/>
      </g>
     </g>
     <g id="text_7">
      <!-- −0.2 -->
      <g transform="translate(31.017188 163.841235) scale(0.1 -0.1)">
       <defs>
        <path id="DejaVuSans-2212" d="M 678 2272 
L 4684 2272 
L 4684 1741 
L 678 1741 
L 678 2272 
z
" transform="scale(0.015625)"/>
        <path id="DejaVuSans-2e" d="M 684 794 
L 1344 794 
L 1344 0 
L 684 0 
L 684 794 
z
" transform="scale(0.015625)"/>
       </defs>
       <use xlink:href="#DejaVuSans-2212"/>
       <use xlink:href="#DejaVuSans-30" transform="translate(83.789062 0)"/>
       <use xlink:href="#DejaVuSans-2e" transform="translate(147.412109 0)"/>
       <use xlink:href="#DejaVuSans-32" transform="translate(179.199219 0)"/>
      </g>
     </g>
    </g>
    <g id="ytick_2">
     <g id="line2d_13">
      <path d="M 62.3 136.445922 
L 239.58 136.445922 
" clip-path="url(#p46248bc9d5)" style="fill: none; stroke: #b0b0b0; stroke-width: 0.8; stroke-linecap: square"/>
     </g>
     <g id="line2d_14">
      <g>
       <use xlink:href="#mcf77b86fe5" x="62.3" y="136.445922" style="stroke: #000000; stroke-width: 0.8"/>
      </g>
     </g>
     <g id="text_8">
      <!-- 0.0 -->
      <g transform="translate(39.396875 140.245141) scale(0.1 -0.1)">
       <use xlink:href="#DejaVuSans-30"/>
       <use xlink:href="#DejaVuSans-2e" transform="translate(63.623047 0)"/>
       <use xlink:href="#DejaVuSans-30" transform="translate(95.410156 0)"/>
      </g>
     </g>
    </g>
    <g id="ytick_3">
     <g id="line2d_15">
      <path d="M 62.3 112.849829 
L 239.58 112.849829 
" clip-path="url(#p46248bc9d5)" style="fill: none; stroke: #b0b0b0; stroke-width: 0.8; stroke-linecap: square"/>
     </g>
     <g id="line2d_16">
      <g>
       <use xlink:href="#mcf77b86fe5" x="62.3" y="112.849829" style="stroke: #000000; stroke-width: 0.8"/>
      </g>
     </g>
     <g id="text_9">
      <!-- 0.2 -->
      <g transform="translate(39.396875 116.649048) scale(0.1 -0.1)">
       <use xlink:href="#DejaVuSans-30"/>
       <use xlink:href="#DejaVuSans-2e" transform="translate(63.623047 0)"/>
       <use xlink:href="#DejaVuSans-32" transform="translate(95.410156 0)"/>
      </g>
     </g>
    </g>
    <g id="ytick_4">
     <g id="line2d_17">
      <path d="M 62.3 89.253735 
L 239.58 89.253735 
" clip-path="url(#p46248bc9d5)" style="fill: none; stroke: #b0b0b0; stroke-width: 0.8; stroke-linecap: square"/>
     </g>
     <g id="line2d_18">
      <g>
       <use xlink:href="#mcf77b86fe5" x="62.3" y="89.253735" style="stroke: #000000; stroke-width: 0.8"/>
      </g>
     </g>
     <g id="text_10">
      <!-- 0.4 -->
      <g transform="translate(39.396875 93.052954) scale(0.1 -0.1)">
       <defs>
        <path id="DejaVuSans-34" d="M 2419 4116 
L 825 1625 
L 2419 1625 
L 2419 4116 
z
M 2253 4666 
L 3047 4666 
L 3047 1625 
L 3713 1625 
L 3713 1100 
L 3047 1100 
L 3047 0 
L 2419 0 
L 2419 1100 
L 313 1100 
L 313 1709 
L 2253 4666 
z
" transform="scale(0.015625)"/>
       </defs>
       <use xlink:href="#DejaVuSans-30"/>
       <use xlink:href="#DejaVuSans-2e" transform="translate(63.623047 0)"/>
       <use xlink:href="#DejaVuSans-34" transform="translate(95.410156 0)"/>
      </g>
     </g>
    </g>
    <g id="ytick_5">
     <g id="line2d_19">
      <path d="M 62.3 65.657642 
L 239.58 65.657642 
" clip-path="url(#p46248bc9d5)" style="fill: none; stroke: #b0b0b0; stroke-width: 0.8; stroke-linecap: square"/>
     </g>
     <g id="line2d_20">
      <g>
       <use xlink:href="#mcf77b86fe5" x="62.3" y="65.657642" style="stroke: #000000; stroke-width: 0.8"/>
      </g>
     </g>
     <g id="text_11">
      <!-- 0.6 -->
      <g transform="translate(39.396875 69.45686) scale(0.1 -0.1)">
       <defs>
        <path id="DejaVuSans-36" d="M 2113 2584 
Q 1688 2584 1439 2293 
Q 1191 2003 1191 1497 
Q 1191 994 1439 701 
Q 1688 409 2113 409 
Q 2538 409 2786 701 
Q 3034 994 3034 1497 
Q 3034 2003 2786 2293 
Q 2538 2584 2113 2584 
z
M 3366 4563 
L 3366 3988 
Q 3128 4100 2886 4159 
Q 2644 4219 2406 4219 
Q 1781 4219 1451 3797 
Q 1122 3375 1075 2522 
Q 1259 2794 1537 2939 
Q 1816 3084 2150 3084 
Q 2853 3084 3261 2657 
Q 3669 2231 3669 1497 
Q 3669 778 3244 343 
Q 2819 -91 2113 -91 
Q 1303 -91 875 529 
Q 447 1150 447 2328 
Q 447 3434 972 4092 
Q 1497 4750 2381 4750 
Q 2619 4750 2861 4703 
Q 3103 4656 3366 4563 
z
" transform="scale(0.015625)"/>
       </defs>
       <use xlink:href="#DejaVuSans-30"/>
       <use xlink:href="#DejaVuSans-2e" transform="translate(63.623047 0)"/>
       <use xlink:href="#DejaVuSans-36" transform="translate(95.410156 0)"/>
      </g>
     </g>
    </g>
    <g id="ytick_6">
     <g id="line2d_21">
      <path d="M 62.3 42.061548 
L 239.58 42.061548 
" clip-path="url(#p46248bc9d5)" style="fill: none; stroke: #b0b0b0; stroke-width: 0.8; stroke-linecap: square"/>
     </g>
     <g id="line2d_22">
      <g>
       <use xlink:href="#mcf77b86fe5" x="62.3" y="42.061548" style="stroke: #000000; stroke-width: 0.8"/>
      </g>
     </g>
     <g id="text_12">
      <!-- 0.8 -->
      <g transform="translate(39.396875 45.860767) scale(0.1 -0.1)">
       <defs>
        <path id="DejaVuSans-38" d="M 2034 2216 
Q 1584 2216 1326 1975 
Q 1069 1734 1069 1313 
Q 1069 891 1326 650 
Q 1584 409 2034 409 
Q 2484 409 2743 651 
Q 3003 894 3003 1313 
Q 3003 1734 2745 1975 
Q 2488 2216 2034 2216 
z
M 1403 2484 
Q 997 2584 770 2862 
Q 544 3141 544 3541 
Q 544 4100 942 4425 
Q 1341 4750 2034 4750 
Q 2731 4750 3128 4425 
Q 3525 4100 3525 3541 
Q 3525 3141 3298 2862 
Q 3072 2584 2669 2484 
Q 3125 2378 3379 2068 
Q 3634 1759 3634 1313 
Q 3634 634 3220 271 
Q 2806 -91 2034 -91 
Q 1263 -91 848 271 
Q 434 634 434 1313 
Q 434 1759 690 2068 
Q 947 2378 1403 2484 
z
M 1172 3481 
Q 1172 3119 1398 2916 
Q 1625 2713 2034 2713 
Q 2441 2713 2670 2916 
Q 2900 3119 2900 3481 
Q 2900 3844 2670 4047 
Q 2441 4250 2034 4250 
Q 1625 4250 1398 4047 
Q 1172 3844 1172 3481 
z
" transform="scale(0.015625)"/>
       </defs>
       <use xlink:href="#DejaVuSans-30"/>
       <use xlink:href="#DejaVuSans-2e" transform="translate(63.623047 0)"/>
       <use xlink:href="#DejaVuSans-38" transform="translate(95.410156 0)"/>
      </g>
     </g>
    </g>
    <g id="ytick_7">
     <g id="line2d_23">
      <path d="M 62.3 18.465455 
L 239.58 18.465455 
" clip-path="url(#p46248bc9d5)" style="fill: none; stroke: #b0b0b0; stroke-width: 0.8; stroke-linecap: square"/>
     </g>
     <g id="line2d_24">
      <g>
       <use xlink:href="#mcf77b86fe5" x="62.3" y="18.465455" style="stroke: #000000; stroke-width: 0.8"/>
      </g>
     </g>
     <g id="text_13">
      <!-- 1.0 -->
      <g transform="translate(39.396875 22.264673) scale(0.1 -0.1)">
       <use xlink:href="#DejaVuSans-31"/>
       <use xlink:href="#DejaVuSans-2e" transform="translate(63.623047 0)"/>
       <use xlink:href="#DejaVuSans-30" transform="translate(95.410156 0)"/>
      </g>
     </g>
    </g>
    <g id="text_14">
     <!-- X(t) -->
     <g transform="translate(24.9375 104.406719) rotate(-90) scale(0.1 -0.1)">
      <defs>
       <path id="DejaVuSans-58" d="M 403 4666 
L 1081 4666 
L 2241 2931 
L 3406 4666 
L 4084 4666 
L 2584 2425 
L 4184 0 
L 3506 0 
L 2194 1984 
L 872 0 
L 191 0 
L 1856 2491 
L 403 4666 
z
" transform="scale(0.015625)"/>
       <path id="DejaVuSans-28" d="M 1984 4856 
Q 1566 4138 1362 3434 
Q 1159 2731 1159 2009 
Q 1159 1288 1364 580 
Q 1569 -128 1984 -844 
L 1484 -844 
Q 1016 -109 783 600 
Q 550 1309 550 2009 
Q 550 2706 781 3412 
Q 1013 4119 1484 4856 
L 1984 4856 
z
" transform="scale(0.015625)"/>
       <path id="DejaVuSans-29" d="M 513 4856 
L 1013 4856 
Q 1481 4119 1714 3412 
Q 1947 2706 1947 2009 
Q 1947 1309 1714 600 
Q 1481 -109 1013 -844 
L 513 -844 
Q 928 -128 1133 580 
Q 1338 1288 1338 2009 
Q 1338 2731 1133 3434 
Q 928 4138 513 4856 
z
" transform="scale(0.015625)"/>
      </defs>
      <use xlink:href="#DejaVuSans-58"/>
      <use xlink:href="#DejaVuSans-28" transform="translate(68.505859 0)"/>
      <use xlink:href="#DejaVuSans-74" transform="translate(107.519531 0)"/>
      <use xlink:href="#DejaVuSans-29" transform="translate(146.728516 0)"/>
     </g>
    </g>
   </g>
   <g id="line2d_25">
    <path d="M 70.358182 18.465455 
L 78.613789 18.576388 
L 78.899855 18.992617 
L 79.262473 19.960601 
L 79.713731 21.864053 
L 80.255241 25.194864 
L 80.885391 30.55895 
L 81.597734 38.650996 
L 82.407581 50.561391 
L 84.392311 81.245599 
L 84.845987 84.415895 
L 85.195712 85.54139 
L 85.450351 85.768625 
L 85.654223 85.672976 
L 85.943511 85.238841 
L 86.620399 83.68219 
L 87.190112 82.667909 
L 87.54306 82.428774 
L 87.813009 82.495489 
L 88.099075 82.821978 
L 88.449606 83.60043 
L 88.878301 85.149395 
L 89.385967 87.889778 
L 89.969379 92.353638 
L 90.633373 99.276055 
L 91.422269 110.023163 
L 92.588288 129.409574 
L 94.19106 155.405417 
L 94.940471 164.109342 
L 95.527913 168.59865 
L 96.008986 170.762209 
L 96.389332 171.600404 
L 96.668145 171.774545 
L 96.895386 171.663126 
L 97.172588 171.239393 
L 97.540847 170.21796 
L 98.016279 168.175149 
L 98.608556 164.56252 
L 99.339433 158.616769 
L 100.308832 148.723719 
L 103.095351 119.162901 
L 103.800442 114.455058 
L 104.361292 112.055365 
L 104.806103 111.003515 
L 105.143741 110.687181 
L 105.404826 110.715103 
L 105.682028 110.99466 
L 106.033364 111.704692 
L 106.483011 113.168484 
L 107.044666 115.824188 
L 107.743311 120.294103 
L 108.665167 127.772936 
L 111.707936 153.676467 
L 112.383212 157.075935 
L 112.919081 158.757635 
L 113.339718 159.442397 
L 113.659628 159.599489 
L 113.935217 159.491305 
L 114.251098 159.099424 
L 114.650784 158.209119 
L 115.15442 156.4908 
L 115.781347 153.49194 
L 116.578301 148.497393 
L 117.756407 139.511105 
L 119.663779 125.071485 
L 120.476849 120.595536 
L 121.10297 118.270205 
L 121.599354 117.183105 
L 121.983729 116.803646 
L 122.287523 116.7838 
L 122.588899 117.002182 
L 122.953129 117.5729 
L 123.410833 118.746565 
L 123.982159 120.879866 
L 124.700948 124.498777 
L 125.674377 130.660319 
L 128.485071 149.145709 
L 129.211113 152.191813 
L 129.780826 153.723924 
L 130.229667 154.371438 
L 130.579392 154.534332 
L 130.884797 154.436136 
L 131.224852 154.069558 
L 131.645489 153.253854 
L 132.170077 151.704439 
L 132.825207 149.014487 
L 133.67454 144.500548 
L 135.094391 135.522932 
L 136.564204 126.721509 
L 137.38775 123.051754 
L 138.020317 121.149027 
L 138.52073 120.268732 
L 138.912358 119.973284 
L 139.236297 119.9879 
L 139.568294 120.241433 
L 139.966368 120.854515 
L 140.46114 122.064968 
L 141.076785 124.211035 
L 141.862458 127.827197 
L 143.013972 134.310993 
L 145.040605 145.718702 
L 145.859316 149.04897 
L 146.490272 150.774575 
L 146.989073 151.563889 
L 147.382313 151.819271 
L 147.71431 151.78437 
L 148.060812 151.507826 
L 148.476614 150.8619 
L 148.990726 149.612811 
L 149.631351 147.420023 
L 150.457315 143.727639 
L 151.754682 136.747136 
L 153.430784 127.993632 
L 154.268029 124.750513 
L 154.90946 123.069211 
L 155.417932 122.292093 
L 155.820841 122.036416 
L 156.163313 122.069002 
L 156.518679 122.341523 
L 156.941734 122.973533 
L 157.463098 124.189043 
L 158.112588 126.316148 
L 158.954668 129.90525 
L 160.32617 136.89571 
L 161.885428 144.502965 
L 162.722673 147.543759 
L 163.364911 149.118977 
L 163.874188 149.842732 
L 164.28032 150.075428 
L 164.630851 150.030523 
L 164.997498 149.743893 
L 165.433446 149.093985 
L 165.970121 147.857688 
L 166.63895 145.70988 
L 167.514874 142.078735 
L 169.118452 134.254688 
L 170.427907 128.388098 
L 171.241783 125.684041 
L 171.870321 124.292246 
L 172.369929 123.667732 
L 172.772032 123.484797 
L 173.129009 123.561123 
L 173.510967 123.887115 
L 173.96706 124.5961 
L 174.52791 125.916034 
L 175.230583 128.188213 
L 176.170167 132.053791 
L 179.33945 145.744252 
L 180.044541 147.564386 
L 180.602167 148.4505 
L 181.047785 148.78567 
L 181.42249 148.807927 
L 181.793972 148.598255 
L 182.221862 148.078279 
L 182.741615 147.065137 
L 183.386269 145.279211 
L 184.217873 142.261225 
L 185.531357 136.522563 
L 187.204236 129.439494 
L 188.050345 126.780167 
L 188.699834 125.403151 
L 189.217169 124.773825 
L 189.636195 124.580363 
L 190.008483 124.646825 
L 190.403334 124.958537 
L 190.869903 125.636057 
L 191.440422 126.890951 
L 192.155183 129.046263 
L 193.119747 132.732761 
L 196.135119 144.772875 
L 196.864384 146.57829 
L 197.439738 147.467406 
L 197.902278 147.814605 
L 198.2931 147.847958 
L 198.677475 147.650186 
L 199.115034 147.153874 
L 199.643651 146.188338 
L 200.297975 144.49035 
L 201.14489 141.617767 
L 202.525257 136.011085 
L 204.098214 129.895321 
L 204.945129 127.445262 
L 205.59623 126.17883 
L 206.116788 125.603914 
L 206.543066 125.435087 
L 206.928247 125.517473 
L 207.34002 125.848197 
L 207.825929 126.549082 
L 208.419011 127.82833 
L 209.166004 130.013703 
L 210.201481 133.805931 
L 212.80105 143.599165 
L 213.5835 145.580778 
L 214.195921 146.584267 
L 214.689082 147.007778 
L 215.101661 147.090608 
L 215.4949 146.939729 
L 215.930848 146.516055 
L 216.451407 145.67322 
L 217.092032 144.176574 
L 217.913161 141.643003 
L 219.172655 136.929322 
L 220.976076 130.311185 
L 221.82702 128.009402 
L 222.48215 126.819642 
L 223.007543 126.281679 
L 223.441879 126.129201 
L 223.839953 126.223065 
L 224.266231 126.567127 
L 224.768256 127.282489 
L 225.381484 128.576703 
L 226.156681 130.776935 
L 227.263875 134.668668 
L 229.541117 142.776911 
L 230.36144 144.835287 
L 230.998842 145.889968 
L 231.512148 146.351321 
L 231.521818 146.356577 
L 231.521818 146.356577 
" clip-path="url(#p46248bc9d5)" style="fill: none; stroke: #1f77b4; stroke-width: 1.5; stroke-linecap: square"/>
   </g>
   <g id="patch_3">
    <path d="M 62.3 179.44 
L 62.3 10.8 
" style="fill: none; stroke: #000000; stroke-width: 0.8; stroke-linejoin: miter; stroke-linecap: square"/>
   </g>
   <g id="patch_4">
    <path d="M 239.58 179.44 
L 239.58 10.8 
" style="fill: none; stroke: #000000; stroke-width: 0.8; stroke-linejoin: miter; stroke-linecap: square"/>
   </g>
   <g id="patch_5">
    <path d="M 62.3 179.44 
L 239.58 179.44 
" style="fill: none; stroke: #000000; stroke-width: 0.8; stroke-linejoin: miter; stroke-linecap: square"/>
   </g>
   <g id="patch_6">
    <path d="M 62.3 10.8 
L 239.58 10.8 
" style="fill: none; stroke: #000000; stroke-width: 0.8; stroke-linejoin: miter; stroke-linecap: square"/>
   </g>
  </g>
  <g id="axes_2">
   <g id="patch_7">
    <path d="M 297.11 179.44 
L 474.39 179.44 
L 474.39 10.8 
L 297.11 10.8 
z
" style="fill: #ffffff"/>
   </g>
   <g id="matplotlib.axis_3">
    <g id="xtick_6">
     <g id="line2d_26">
      <path d="M 305.168182 179.44 
L 305.168182 10.8 
" clip-path="url(#p353df6c6e3)" style="fill: none; stroke: #b0b0b0; stroke-width: 0.8; stroke-linecap: square"/>
     </g>
     <g id="line2d_27">
      <g>
       <use xlink:href="#m6abe81435c" x="305.168182" y="179.44" style="stroke: #000000; stroke-width: 0.8"/>
      </g>
     </g>
     <g id="text_15">
      <!-- 0 -->
      <g transform="translate(301.986932 194.038437) scale(0.1 -0.1)">
       <use xlink:href="#DejaVuSans-30"/>
      </g>
     </g>
    </g>
    <g id="xtick_7">
     <g id="line2d_28">
      <path d="M 345.459091 179.44 
L 345.459091 10.8 
" clip-path="url(#p353df6c6e3)" style="fill: none; stroke: #b0b0b0; stroke-width: 0.8; stroke-linecap: square"/>
     </g>
     <g id="line2d_29">
      <g>
       <use xlink:href="#m6abe81435c" x="345.459091" y="179.44" style="stroke: #000000; stroke-width: 0.8"/>
      </g>
     </g>
     <g id="text_16">
      <!-- 5 -->
      <g transform="translate(342.277841 194.038437) scale(0.1 -0.1)">
       <use xlink:href="#DejaVuSans-35"/>
      </g>
     </g>
    </g>
    <g id="xtick_8">
     <g id="line2d_30">
      <path d="M 385.75 179.44 
L 385.75 10.8 
" clip-path="url(#p353df6c6e3)" style="fill: none; stroke: #b0b0b0; stroke-width: 0.8; stroke-linecap: square"/>
     </g>
     <g id="line2d_31">
      <g>
       <use xlink:href="#m6abe81435c" x="385.75" y="179.44" style="stroke: #000000; stroke-width: 0.8"/>
      </g>
     </g>
     <g id="text_17">
      <!-- 10 -->
      <g transform="translate(379.3875 194.038437) scale(0.1 -0.1)">
       <use xlink:href="#DejaVuSans-31"/>
       <use xlink:href="#DejaVuSans-30" transform="translate(63.623047 0)"/>
      </g>
     </g>
    </g>
    <g id="xtick_9">
     <g id="line2d_32">
      <path d="M 426.040909 179.44 
L 426.040909 10.8 
" clip-path="url(#p353df6c6e3)" style="fill: none; stroke: #b0b0b0; stroke-width: 0.8; stroke-linecap: square"/>
     </g>
     <g id="line2d_33">
      <g>
       <use xlink:href="#m6abe81435c" x="426.040909" y="179.44" style="stroke: #000000; stroke-width: 0.8"/>
      </g>
     </g>
     <g id="text_18">
      <!-- 15 -->
      <g transform="translate(419.678409 194.038437) scale(0.1 -0.1)">
       <use xlink:href="#DejaVuSans-31"/>
       <use xlink:href="#DejaVuSans-35" transform="translate(63.623047 0)"/>
      </g>
     </g>
    </g>
    <g id="xtick_10">
     <g id="line2d_34">
      <path d="M 466.331818 179.44 
L 466.331818 10.8 
" clip-path="url(#p353df6c6e3)" style="fill: none; stroke: #b0b0b0; stroke-width: 0.8; stroke-linecap: square"/>
     </g>
     <g id="line2d_35">
      <g>
       <use xlink:href="#m6abe81435c" x="466.331818" y="179.44" style="stroke: #000000; stroke-width: 0.8"/>
      </g>
     </g>
     <g id="text_19">
      <!-- 20 -->
      <g transform="translate(459.969318 194.038437) scale(0.1 -0.1)">
       <use xlink:href="#DejaVuSans-32"/>
       <use xlink:href="#DejaVuSans-30" transform="translate(63.623047 0)"/>
      </g>
     </g>
    </g>
    <g id="text_20">
     <!-- t -->
     <g transform="translate(383.789844 207.716562) scale(0.1 -0.1)">
      <use xlink:href="#DejaVuSans-74"/>
     </g>
    </g>
   </g>
   <g id="matplotlib.axis_4">
    <g id="ytick_8">
     <g id="line2d_36">
      <path d="M 297.11 177.870548 
L 474.39 177.870548 
" clip-path="url(#p353df6c6e3)" style="fill: none; stroke: #b0b0b0; stroke-width: 0.8; stroke-linecap: square"/>
     </g>
     <g id="line2d_37">
      <g>
       <use xlink:href="#mcf77b86fe5" x="297.11" y="177.870548" style="stroke: #000000; stroke-width: 0.8"/>
      </g>
     </g>
     <g id="text_21">
      <!-- 0.0 -->
      <g transform="translate(274.206875 181.669767) scale(0.1 -0.1)">
       <use xlink:href="#DejaVuSans-30"/>
       <use xlink:href="#DejaVuSans-2e" transform="translate(63.623047 0)"/>
       <use xlink:href="#DejaVuSans-30" transform="translate(95.410156 0)"/>
      </g>
     </g>
    </g>
    <g id="ytick_9">
     <g id="line2d_38">
      <path d="M 297.11 145.989529 
L 474.39 145.989529 
" clip-path="url(#p353df6c6e3)" style="fill: none; stroke: #b0b0b0; stroke-width: 0.8; stroke-linecap: square"/>
     </g>
     <g id="line2d_39">
      <g>
       <use xlink:href="#mcf77b86fe5" x="297.11" y="145.989529" style="stroke: #000000; stroke-width: 0.8"/>
      </g>
     </g>
     <g id="text_22">
      <!-- 0.2 -->
      <g transform="translate(274.206875 149.788748) scale(0.1 -0.1)">
       <use xlink:href="#DejaVuSans-30"/>
       <use xlink:href="#DejaVuSans-2e" transform="translate(63.623047 0)"/>
       <use xlink:href="#DejaVuSans-32" transform="translate(95.410156 0)"/>
      </g>
     </g>
    </g>
    <g id="ytick_10">
     <g id="line2d_40">
      <path d="M 297.11 114.10851 
L 474.39 114.10851 
" clip-path="url(#p353df6c6e3)" style="fill: none; stroke: #b0b0b0; stroke-width: 0.8; stroke-linecap: square"/>
     </g>
     <g id="line2d_41">
      <g>
       <use xlink:href="#mcf77b86fe5" x="297.11" y="114.10851" style="stroke: #000000; stroke-width: 0.8"/>
      </g>
     </g>
     <g id="text_23">
      <!-- 0.4 -->
      <g transform="translate(274.206875 117.907729) scale(0.1 -0.1)">
       <use xlink:href="#DejaVuSans-30"/>
       <use xlink:href="#DejaVuSans-2e" transform="translate(63.623047 0)"/>
       <use xlink:href="#DejaVuSans-34" transform="translate(95.410156 0)"/>
      </g>
     </g>
    </g>
    <g id="ytick_11">
     <g id="line2d_42">
      <path d="M 297.11 82.227492 
L 474.39 82.227492 
" clip-path="url(#p353df6c6e3)" style="fill: none; stroke: #b0b0b0; stroke-width: 0.8; stroke-linecap: square"/>
     </g>
     <g id="line2d_43">
      <g>
       <use xlink:href="#mcf77b86fe5" x="297.11" y="82.227492" style="stroke: #000000; stroke-width: 0.8"/>
      </g>
     </g>
     <g id="text_24">
      <!-- 0.6 -->
      <g transform="translate(274.206875 86.026711) scale(0.1 -0.1)">
       <use xlink:href="#DejaVuSans-30"/>
       <use xlink:href="#DejaVuSans-2e" transform="translate(63.623047 0)"/>
       <use xlink:href="#DejaVuSans-36" transform="translate(95.410156 0)"/>
      </g>
     </g>
    </g>
    <g id="ytick_12">
     <g id="line2d_44">
      <path d="M 297.11 50.346473 
L 474.39 50.346473 
" clip-path="url(#p353df6c6e3)" style="fill: none; stroke: #b0b0b0; stroke-width: 0.8; stroke-linecap: square"/>
     </g>
     <g id="line2d_45">
      <g>
       <use xlink:href="#mcf77b86fe5" x="297.11" y="50.346473" style="stroke: #000000; stroke-width: 0.8"/>
      </g>
     </g>
     <g id="text_25">
      <!-- 0.8 -->
      <g transform="translate(274.206875 54.145692) scale(0.1 -0.1)">
       <use xlink:href="#DejaVuSans-30"/>
       <use xlink:href="#DejaVuSans-2e" transform="translate(63.623047 0)"/>
       <use xlink:href="#DejaVuSans-38" transform="translate(95.410156 0)"/>
      </g>
     </g>
    </g>
    <g id="ytick_13">
     <g id="line2d_46">
      <path d="M 297.11 18.465455 
L 474.39 18.465455 
" clip-path="url(#p353df6c6e3)" style="fill: none; stroke: #b0b0b0; stroke-width: 0.8; stroke-linecap: square"/>
     </g>
     <g id="line2d_47">
      <g>
       <use xlink:href="#mcf77b86fe5" x="297.11" y="18.465455" style="stroke: #000000; stroke-width: 0.8"/>
      </g>
     </g>
     <g id="text_26">
      <!-- 1.0 -->
      <g transform="translate(274.206875 22.264673) scale(0.1 -0.1)">
       <use xlink:href="#DejaVuSans-31"/>
       <use xlink:href="#DejaVuSans-2e" transform="translate(63.623047 0)"/>
       <use xlink:href="#DejaVuSans-30" transform="translate(95.410156 0)"/>
      </g>
     </g>
    </g>
    <g id="text_27">
     <!-- Y(t) -->
     <g transform="translate(268.127188 104.035625) rotate(-90) scale(0.1 -0.1)">
      <defs>
       <path id="DejaVuSans-59" d="M -13 4666 
L 666 4666 
L 1959 2747 
L 3244 4666 
L 3922 4666 
L 2272 2222 
L 2272 0 
L 1638 0 
L 1638 2222 
L -13 4666 
z
" transform="scale(0.015625)"/>
      </defs>
      <use xlink:href="#DejaVuSans-59"/>
      <use xlink:href="#DejaVuSans-28" transform="translate(61.083984 0)"/>
      <use xlink:href="#DejaVuSans-74" transform="translate(100.097656 0)"/>
      <use xlink:href="#DejaVuSans-29" transform="translate(139.306641 0)"/>
     </g>
    </g>
   </g>
   <g id="line2d_48">
    <path d="M 305.168182 18.465455 
L 313.356906 18.575925 
L 313.584147 19.055143 
L 313.894387 20.302254 
L 314.294879 22.938271 
L 314.785622 27.788437 
L 315.360976 35.858519 
L 316.014495 48.368663 
L 316.764711 67.311631 
L 318.819548 122.379451 
L 319.286116 127.841465 
L 319.680161 130.180673 
L 320.008129 131.000335 
L 320.27002 131.164153 
L 320.525465 131.056193 
L 320.939655 130.587959 
L 321.950957 129.415093 
L 322.382876 129.256834 
L 322.755969 129.352921 
L 323.147597 129.699924 
L 323.604496 130.429256 
L 324.150841 131.756606 
L 324.811612 133.994553 
L 325.639993 137.653319 
L 326.843079 144.101882 
L 328.606209 153.452902 
L 329.255699 155.72534 
L 329.768199 156.791264 
L 330.225098 157.271744 
L 330.706172 157.460044 
L 331.524883 157.490135 
L 332.504758 157.606262 
L 333.404857 157.955996 
L 334.715923 158.735313 
L 337.471015 160.417792 
L 338.209145 160.529445 
L 339.183379 160.421094 
L 340.34134 160.348094 
L 341.155216 160.533249 
L 342.06982 160.983271 
L 343.440516 161.939776 
L 345.5711 163.408942 
L 346.429296 163.710617 
L 347.331007 163.781047 
L 349.652569 163.853114 
L 350.9588 164.218838 
L 354.885552 165.45573 
L 356.159551 165.454726 
L 357.899312 165.483052 
L 359.313523 165.763492 
L 363.517476 166.736546 
L 365.585206 166.711962 
L 367.109008 166.845677 
L 369.535327 167.335407 
L 371.585328 167.661609 
L 373.275935 167.666113 
L 375.242937 167.727889 
L 377.578198 168.080009 
L 380.155204 168.409544 
L 382.55896 168.399891 
L 384.482448 168.537772 
L 389.47288 169.018961 
L 392.671978 169.093341 
L 398.437607 169.509274 
L 401.090361 169.578109 
L 407.092095 169.930599 
L 409.765799 170.009044 
L 415.338838 170.298663 
L 418.339705 170.373623 
L 423.796705 170.618016 
L 426.965988 170.695431 
L 432.237651 170.900328 
L 435.591466 170.979537 
L 440.724528 171.151754 
L 444.229031 171.233384 
L 449.24122 171.37764 
L 452.884324 171.462245 
L 457.786922 171.582074 
L 461.571044 171.670576 
L 466.331818 171.768449 
L 466.331818 171.768449 
" clip-path="url(#p353df6c6e3)" style="fill: none; stroke: #1f77b4; stroke-width: 1.5; stroke-linecap: square"/>
   </g>
   <g id="patch_8">
    <path d="M 297.11 179.44 
L 297.11 10.8 
" style="fill: none; stroke: #000000; stroke-width: 0.8; stroke-linejoin: miter; stroke-linecap: square"/>
   </g>
   <g id="patch_9">
    <path d="M 474.39 179.44 
L 474.39 10.8 
" style="fill: none; stroke: #000000; stroke-width: 0.8; stroke-linejoin: miter; stroke-linecap: square"/>
   </g>
   <g id="patch_10">
    <path d="M 297.11 179.44 
L 474.39 179.44 
" style="fill: none; stroke: #000000; stroke-width: 0.8; stroke-linejoin: miter; stroke-linecap: square"/>
   </g>
   <g id="patch_11">
    <path d="M 297.11 10.8 
L 474.39 10.8 
" style="fill: none; stroke: #000000; stroke-width: 0.8; stroke-linejoin: miter; stroke-linecap: square"/>
   </g>
  </g>
  <g id="axes_3">
   <g id="patch_12">
    <path d="M 531.92 179.44 
L 709.2 179.44 
L 709.2 10.8 
L 531.92 10.8 
z
" style="fill: #ffffff"/>
   </g>
   <g id="matplotlib.axis_5">
    <g id="xtick_11">
     <g id="line2d_49">
      <path d="M 539.978182 179.44 
L 539.978182 10.8 
" clip-path="url(#p422335a337)" style="fill: none; stroke: #b0b0b0; stroke-width: 0.8; stroke-linecap: square"/>
     </g>
     <g id="line2d_50">
      <g>
       <use xlink:href="#m6abe81435c" x="539.978182" y="179.44" style="stroke: #000000; stroke-width: 0.8"/>
      </g>
     </g>
     <g id="text_28">
      <!-- 0 -->
      <g transform="translate(536.796932 194.038437) scale(0.1 -0.1)">
       <use xlink:href="#DejaVuSans-30"/>
      </g>
     </g>
    </g>
    <g id="xtick_12">
     <g id="line2d_51">
      <path d="M 580.269091 179.44 
L 580.269091 10.8 
" clip-path="url(#p422335a337)" style="fill: none; stroke: #b0b0b0; stroke-width: 0.8; stroke-linecap: square"/>
     </g>
     <g id="line2d_52">
      <g>
       <use xlink:href="#m6abe81435c" x="580.269091" y="179.44" style="stroke: #000000; stroke-width: 0.8"/>
      </g>
     </g>
     <g id="text_29">
      <!-- 5 -->
      <g transform="translate(577.087841 194.038437) scale(0.1 -0.1)">
       <use xlink:href="#DejaVuSans-35"/>
      </g>
     </g>
    </g>
    <g id="xtick_13">
     <g id="line2d_53">
      <path d="M 620.56 179.44 
L 620.56 10.8 
" clip-path="url(#p422335a337)" style="fill: none; stroke: #b0b0b0; stroke-width: 0.8; stroke-linecap: square"/>
     </g>
     <g id="line2d_54">
      <g>
       <use xlink:href="#m6abe81435c" x="620.56" y="179.44" style="stroke: #000000; stroke-width: 0.8"/>
      </g>
     </g>
     <g id="text_30">
      <!-- 10 -->
      <g transform="translate(614.1975 194.038437) scale(0.1 -0.1)">
       <use xlink:href="#DejaVuSans-31"/>
       <use xlink:href="#DejaVuSans-30" transform="translate(63.623047 0)"/>
      </g>
     </g>
    </g>
    <g id="xtick_14">
     <g id="line2d_55">
      <path d="M 660.850909 179.44 
L 660.850909 10.8 
" clip-path="url(#p422335a337)" style="fill: none; stroke: #b0b0b0; stroke-width: 0.8; stroke-linecap: square"/>
     </g>
     <g id="line2d_56">
      <g>
       <use xlink:href="#m6abe81435c" x="660.850909" y="179.44" style="stroke: #000000; stroke-width: 0.8"/>
      </g>
     </g>
     <g id="text_31">
      <!-- 15 -->
      <g transform="translate(654.488409 194.038437) scale(0.1 -0.1)">
       <use xlink:href="#DejaVuSans-31"/>
       <use xlink:href="#DejaVuSans-35" transform="translate(63.623047 0)"/>
      </g>
     </g>
    </g>
    <g id="xtick_15">
     <g id="line2d_57">
      <path d="M 701.141818 179.44 
L 701.141818 10.8 
" clip-path="url(#p422335a337)" style="fill: none; stroke: #b0b0b0; stroke-width: 0.8; stroke-linecap: square"/>
     </g>
     <g id="line2d_58">
      <g>
       <use xlink:href="#m6abe81435c" x="701.141818" y="179.44" style="stroke: #000000; stroke-width: 0.8"/>
      </g>
     </g>
     <g id="text_32">
      <!-- 20 -->
      <g transform="translate(694.779318 194.038437) scale(0.1 -0.1)">
       <use xlink:href="#DejaVuSans-32"/>
       <use xlink:href="#DejaVuSans-30" transform="translate(63.623047 0)"/>
      </g>
     </g>
    </g>
    <g id="text_33">
     <!-- t -->
     <g transform="translate(618.599844 207.716562) scale(0.1 -0.1)">
      <use xlink:href="#DejaVuSans-74"/>
     </g>
    </g>
   </g>
   <g id="matplotlib.axis_6">
    <g id="ytick_14">
     <g id="line2d_59">
      <path d="M 531.92 164.072954 
L 709.2 164.072954 
" clip-path="url(#p422335a337)" style="fill: none; stroke: #b0b0b0; stroke-width: 0.8; stroke-linecap: square"/>
     </g>
     <g id="line2d_60">
      <g>
       <use xlink:href="#mcf77b86fe5" x="531.92" y="164.072954" style="stroke: #000000; stroke-width: 0.8"/>
      </g>
     </g>
     <g id="text_34">
      <!-- 0.0 -->
      <g transform="translate(509.016875 167.872173) scale(0.1 -0.1)">
       <use xlink:href="#DejaVuSans-30"/>
       <use xlink:href="#DejaVuSans-2e" transform="translate(63.623047 0)"/>
       <use xlink:href="#DejaVuSans-30" transform="translate(95.410156 0)"/>
      </g>
     </g>
    </g>
    <g id="ytick_15">
     <g id="line2d_61">
      <path d="M 531.92 134.951454 
L 709.2 134.951454 
" clip-path="url(#p422335a337)" style="fill: none; stroke: #b0b0b0; stroke-width: 0.8; stroke-linecap: square"/>
     </g>
     <g id="line2d_62">
      <g>
       <use xlink:href="#mcf77b86fe5" x="531.92" y="134.951454" style="stroke: #000000; stroke-width: 0.8"/>
      </g>
     </g>
     <g id="text_35">
      <!-- 0.2 -->
      <g transform="translate(509.016875 138.750673) scale(0.1 -0.1)">
       <use xlink:href="#DejaVuSans-30"/>
       <use xlink:href="#DejaVuSans-2e" transform="translate(63.623047 0)"/>
       <use xlink:href="#DejaVuSans-32" transform="translate(95.410156 0)"/>
      </g>
     </g>
    </g>
    <g id="ytick_16">
     <g id="line2d_63">
      <path d="M 531.92 105.829954 
L 709.2 105.829954 
" clip-path="url(#p422335a337)" style="fill: none; stroke: #b0b0b0; stroke-width: 0.8; stroke-linecap: square"/>
     </g>
     <g id="line2d_64">
      <g>
       <use xlink:href="#mcf77b86fe5" x="531.92" y="105.829954" style="stroke: #000000; stroke-width: 0.8"/>
      </g>
     </g>
     <g id="text_36">
      <!-- 0.4 -->
      <g transform="translate(509.016875 109.629173) scale(0.1 -0.1)">
       <use xlink:href="#DejaVuSans-30"/>
       <use xlink:href="#DejaVuSans-2e" transform="translate(63.623047 0)"/>
       <use xlink:href="#DejaVuSans-34" transform="translate(95.410156 0)"/>
      </g>
     </g>
    </g>
    <g id="ytick_17">
     <g id="line2d_65">
      <path d="M 531.92 76.708454 
L 709.2 76.708454 
" clip-path="url(#p422335a337)" style="fill: none; stroke: #b0b0b0; stroke-width: 0.8; stroke-linecap: square"/>
     </g>
     <g id="line2d_66">
      <g>
       <use xlink:href="#mcf77b86fe5" x="531.92" y="76.708454" style="stroke: #000000; stroke-width: 0.8"/>
      </g>
     </g>
     <g id="text_37">
      <!-- 0.6 -->
      <g transform="translate(509.016875 80.507673) scale(0.1 -0.1)">
       <use xlink:href="#DejaVuSans-30"/>
       <use xlink:href="#DejaVuSans-2e" transform="translate(63.623047 0)"/>
       <use xlink:href="#DejaVuSans-36" transform="translate(95.410156 0)"/>
      </g>
     </g>
    </g>
    <g id="ytick_18">
     <g id="line2d_67">
      <path d="M 531.92 47.586954 
L 709.2 47.586954 
" clip-path="url(#p422335a337)" style="fill: none; stroke: #b0b0b0; stroke-width: 0.8; stroke-linecap: square"/>
     </g>
     <g id="line2d_68">
      <g>
       <use xlink:href="#mcf77b86fe5" x="531.92" y="47.586954" style="stroke: #000000; stroke-width: 0.8"/>
      </g>
     </g>
     <g id="text_38">
      <!-- 0.8 -->
      <g transform="translate(509.016875 51.386173) scale(0.1 -0.1)">
       <use xlink:href="#DejaVuSans-30"/>
       <use xlink:href="#DejaVuSans-2e" transform="translate(63.623047 0)"/>
       <use xlink:href="#DejaVuSans-38" transform="translate(95.410156 0)"/>
      </g>
     </g>
    </g>
    <g id="ytick_19">
     <g id="line2d_69">
      <path d="M 531.92 18.465455 
L 709.2 18.465455 
" clip-path="url(#p422335a337)" style="fill: none; stroke: #b0b0b0; stroke-width: 0.8; stroke-linecap: square"/>
     </g>
     <g id="line2d_70">
      <g>
       <use xlink:href="#mcf77b86fe5" x="531.92" y="18.465455" style="stroke: #000000; stroke-width: 0.8"/>
      </g>
     </g>
     <g id="text_39">
      <!-- 1.0 -->
      <g transform="translate(509.016875 22.264673) scale(0.1 -0.1)">
       <use xlink:href="#DejaVuSans-31"/>
       <use xlink:href="#DejaVuSans-2e" transform="translate(63.623047 0)"/>
       <use xlink:href="#DejaVuSans-30" transform="translate(95.410156 0)"/>
      </g>
     </g>
    </g>
    <g id="text_40">
     <!-- $\theta(t)$ -->
     <g transform="translate(502.937187 104.07) rotate(-90) scale(0.1 -0.1)">
      <defs>
       <path id="DejaVuSans-Oblique-3b8" d="M 2913 2219 
L 925 2219 
Q 791 1284 928 888 
Q 1100 400 1566 400 
Q 2034 400 2391 891 
Q 2703 1322 2913 2219 
z
M 3009 2750 
Q 3094 3638 2984 3950 
Q 2813 4444 2353 4444 
Q 1875 4444 1525 3956 
Q 1250 3563 1034 2750 
L 3009 2750 
z
M 2444 4913 
Q 3194 4913 3494 4250 
Q 3794 3591 3566 2422 
Q 3341 1256 2781 594 
Q 2225 -72 1475 -72 
Q 722 -72 425 594 
Q 128 1256 353 2422 
Q 581 3591 1134 4250 
Q 1691 4913 2444 4913 
z
" transform="scale(0.015625)"/>
       <path id="DejaVuSans-Oblique-74" d="M 2706 3500 
L 2619 3053 
L 1472 3053 
L 1100 1153 
Q 1081 1047 1072 975 
Q 1063 903 1063 863 
Q 1063 663 1183 572 
Q 1303 481 1569 481 
L 2150 481 
L 2053 0 
L 1503 0 
Q 991 0 739 200 
Q 488 400 488 806 
Q 488 878 497 964 
Q 506 1050 525 1153 
L 897 3053 
L 409 3053 
L 500 3500 
L 978 3500 
L 1172 4494 
L 1747 4494 
L 1556 3500 
L 2706 3500 
z
" transform="scale(0.015625)"/>
      </defs>
      <use xlink:href="#DejaVuSans-Oblique-3b8" transform="translate(0 0.234375)"/>
      <use xlink:href="#DejaVuSans-28" transform="translate(61.181641 0.234375)"/>
      <use xlink:href="#DejaVuSans-Oblique-74" transform="translate(100.195312 0.234375)"/>
      <use xlink:href="#DejaVuSans-29" transform="translate(139.404297 0.234375)"/>
     </g>
    </g>
   </g>
   <g id="line2d_71">
    <path d="M 539.978182 18.465455 
L 541.992727 18.465455 
L 542.283628 63.88514 
L 542.600314 82.121965 
L 543.023369 93.871837 
L 543.647878 105.13476 
L 543.992768 108.319536 
L 544.083825 108.479471 
L 544.132175 108.411355 
L 544.240154 107.823003 
L 544.414211 105.398398 
L 544.655151 98.43726 
L 544.985536 81.457397 
L 546.015372 23.409519 
L 546.296602 19.487482 
L 546.482746 18.973337 
L 546.490804 18.975366 
L 546.595561 19.131444 
L 546.822801 19.994398 
L 547.718871 23.636064 
L 548.151596 24.448402 
L 548.585126 24.815421 
L 548.988841 24.884755 
L 549.395779 24.723181 
L 549.87927 24.270488 
L 551.167773 22.919498 
L 551.370033 23.09231 
L 551.594051 23.628359 
L 551.862388 24.930376 
L 552.182298 27.725482 
L 552.569897 33.301921 
L 553.076756 44.206319 
L 554.11465 72.851354 
L 554.951895 92.631907 
L 555.545783 101.877296 
L 556.051837 106.627366 
L 556.520823 109.120757 
L 557.017207 110.615962 
L 558.563572 114.562413 
L 559.22112 117.361647 
L 560.343625 123.362248 
L 561.147831 127.024518 
L 561.745748 128.769655 
L 562.868253 131.680888 
L 563.288084 133.803154 
L 563.753847 137.421617 
L 564.347735 143.988098 
L 566.193059 165.724926 
L 566.745044 169.173138 
L 567.214836 170.855007 
L 567.613716 171.559973 
L 567.956189 171.766941 
L 568.302691 171.716118 
L 568.82889 171.373934 
L 569.795066 170.763536 
L 571.308393 170.083047 
L 571.697603 169.421486 
L 572.131939 168.199971 
L 572.666196 165.961273 
L 573.529228 161.198617 
L 574.5365 156.028123 
L 575.118301 154.114506 
L 575.580035 153.272284 
L 575.959575 152.988005 
L 576.306883 152.993918 
L 576.719462 153.244368 
L 577.435834 153.994941 
L 578.557533 155.096829 
L 579.593009 156.086163 
L 580.098257 156.947568 
L 580.622039 158.318485 
L 581.265888 160.694805 
L 583.358598 168.96433 
L 583.88802 169.978705 
L 584.332832 170.398698 
L 584.742188 170.496034 
L 585.210368 170.365483 
L 586.099991 169.82242 
L 587.145943 169.299736 
L 588.055712 168.808477 
L 588.569018 168.246745 
L 589.089577 167.320741 
L 589.718115 165.701553 
L 591.997775 159.328482 
L 592.510275 158.727585 
L 592.962339 158.516225 
L 593.432131 158.544943 
L 594.094513 158.8376 
L 595.847168 159.673862 
L 596.608666 160.120674 
L 597.15904 160.719651 
L 597.734394 161.701673 
L 598.482193 163.472093 
L 600.078519 167.344345 
L 600.671601 168.170548 
L 601.173626 168.517938 
L 601.661146 168.590938 
L 602.263092 168.438546 
L 605.220445 167.163608 
L 605.792576 166.56436 
L 606.418697 165.559108 
L 607.369562 163.535618 
L 608.455805 161.380511 
L 609.079508 160.608455 
L 609.608931 160.282888 
L 610.134324 160.218101 
L 610.807988 160.379272 
L 613.819331 161.563503 
L 614.421277 162.19061 
L 615.119116 163.269318 
L 617.303689 166.909929 
L 617.877431 167.319563 
L 618.424582 167.443267 
L 619.078906 167.348798 
L 621.951648 166.450557 
L 622.593885 165.989255 
L 623.250627 165.224279 
L 624.187793 163.736685 
L 625.374764 161.947061 
L 626.024253 161.356823 
L 626.597996 161.122609 
L 627.213641 161.116873 
L 628.206409 161.372145 
L 630.918793 162.293075 
L 631.585204 162.937992 
L 632.4571 164.131431 
L 633.859223 166.031086 
L 634.518383 166.543589 
L 635.1163 166.735559 
L 635.789964 166.708353 
L 637.470095 166.304761 
L 639.001955 165.879375 
L 639.687706 165.414285 
L 640.4347 164.617084 
L 642.71033 161.974967 
L 643.339674 161.698126 
L 643.996416 161.656014 
L 644.994019 161.850815 
L 647.849839 162.660838 
L 648.569434 163.259073 
L 649.583959 164.438609 
L 650.76126 165.715344 
L 651.452652 166.14417 
L 652.102141 166.289069 
L 652.891843 166.221462 
L 655.957981 165.535237 
L 656.692081 165.085867 
L 657.525297 164.291444 
L 659.39399 162.42259 
L 660.079741 162.104277 
L 660.772745 162.030061 
L 661.767124 162.177735 
L 664.764768 162.905573 
L 665.535936 163.467927 
L 666.762391 164.700636 
L 667.765635 165.560593 
L 668.477978 165.887228 
L 669.192739 165.967572 
L 670.21774 165.828028 
L 673.225053 165.143061 
L 674.022007 164.593164 
L 675.553062 163.168285 
L 676.420928 162.568089 
L 677.136495 162.33713 
L 677.922973 162.326159 
L 680.097876 162.656269 
L 681.341254 162.935284 
L 682.146266 163.35984 
L 683.121306 164.15417 
L 684.612876 165.353391 
L 685.366316 165.658348 
L 686.133455 165.724251 
L 687.346211 165.563326 
L 690.115808 164.999313 
L 690.961111 164.478982 
L 693.616282 162.631741 
L 694.382615 162.518039 
L 695.420509 162.615142 
L 698.576093 163.212191 
L 699.447183 163.725806 
L 701.141818 165.008516 
L 701.141818 165.008516 
" clip-path="url(#p422335a337)" style="fill: none; stroke: #1f77b4; stroke-width: 1.5; stroke-linecap: square"/>
   </g>
   <g id="patch_13">
    <path d="M 531.92 179.44 
L 531.92 10.8 
" style="fill: none; stroke: #000000; stroke-width: 0.8; stroke-linejoin: miter; stroke-linecap: square"/>
   </g>
   <g id="patch_14">
    <path d="M 709.2 179.44 
L 709.2 10.8 
" style="fill: none; stroke: #000000; stroke-width: 0.8; stroke-linejoin: miter; stroke-linecap: square"/>
   </g>
   <g id="patch_15">
    <path d="M 531.92 179.44 
L 709.2 179.44 
" style="fill: none; stroke: #000000; stroke-width: 0.8; stroke-linejoin: miter; stroke-linecap: square"/>
   </g>
   <g id="patch_16">
    <path d="M 531.92 10.8 
L 709.2 10.8 
" style="fill: none; stroke: #000000; stroke-width: 0.8; stroke-linejoin: miter; stroke-linecap: square"/>
   </g>
  </g>
  <g id="axes_4">
   <g id="patch_17">
    <path d="M 62.3 390.04 
L 356.985 390.04 
L 356.985 221.4 
L 62.3 221.4 
z
" style="fill: #ffffff"/>
   </g>
   <g id="matplotlib.axis_7">
    <g id="xtick_16">
     <g id="line2d_72">
      <path d="M 75.694773 390.04 
L 75.694773 221.4 
" clip-path="url(#p0a68e183bb)" style="fill: none; stroke: #b0b0b0; stroke-width: 0.8; stroke-linecap: square"/>
     </g>
     <g id="line2d_73">
      <g>
       <use xlink:href="#m6abe81435c" x="75.694773" y="390.04" style="stroke: #000000; stroke-width: 0.8"/>
      </g>
     </g>
     <g id="text_41">
      <!-- 0.0 -->
      <g transform="translate(67.74321 404.638438) scale(0.1 -0.1)">
       <use xlink:href="#DejaVuSans-30"/>
       <use xlink:href="#DejaVuSans-2e" transform="translate(63.623047 0)"/>
       <use xlink:href="#DejaVuSans-30" transform="translate(95.410156 0)"/>
      </g>
     </g>
    </g>
    <g id="xtick_17">
     <g id="line2d_74">
      <path d="M 109.181872 390.04 
L 109.181872 221.4 
" clip-path="url(#p0a68e183bb)" style="fill: none; stroke: #b0b0b0; stroke-width: 0.8; stroke-linecap: square"/>
     </g>
     <g id="line2d_75">
      <g>
       <use xlink:href="#m6abe81435c" x="109.181872" y="390.04" style="stroke: #000000; stroke-width: 0.8"/>
      </g>
     </g>
     <g id="text_42">
      <!-- 2.5 -->
      <g transform="translate(101.230309 404.638438) scale(0.1 -0.1)">
       <use xlink:href="#DejaVuSans-32"/>
       <use xlink:href="#DejaVuSans-2e" transform="translate(63.623047 0)"/>
       <use xlink:href="#DejaVuSans-35" transform="translate(95.410156 0)"/>
      </g>
     </g>
    </g>
    <g id="xtick_18">
     <g id="line2d_76">
      <path d="M 142.668971 390.04 
L 142.668971 221.4 
" clip-path="url(#p0a68e183bb)" style="fill: none; stroke: #b0b0b0; stroke-width: 0.8; stroke-linecap: square"/>
     </g>
     <g id="line2d_77">
      <g>
       <use xlink:href="#m6abe81435c" x="142.668971" y="390.04" style="stroke: #000000; stroke-width: 0.8"/>
      </g>
     </g>
     <g id="text_43">
      <!-- 5.0 -->
      <g transform="translate(134.717409 404.638438) scale(0.1 -0.1)">
       <use xlink:href="#DejaVuSans-35"/>
       <use xlink:href="#DejaVuSans-2e" transform="translate(63.623047 0)"/>
       <use xlink:href="#DejaVuSans-30" transform="translate(95.410156 0)"/>
      </g>
     </g>
    </g>
    <g id="xtick_19">
     <g id="line2d_78">
      <path d="M 176.15607 390.04 
L 176.15607 221.4 
" clip-path="url(#p0a68e183bb)" style="fill: none; stroke: #b0b0b0; stroke-width: 0.8; stroke-linecap: square"/>
     </g>
     <g id="line2d_79">
      <g>
       <use xlink:href="#m6abe81435c" x="176.15607" y="390.04" style="stroke: #000000; stroke-width: 0.8"/>
      </g>
     </g>
     <g id="text_44">
      <!-- 7.5 -->
      <g transform="translate(168.204508 404.638438) scale(0.1 -0.1)">
       <defs>
        <path id="DejaVuSans-37" d="M 525 4666 
L 3525 4666 
L 3525 4397 
L 1831 0 
L 1172 0 
L 2766 4134 
L 525 4134 
L 525 4666 
z
" transform="scale(0.015625)"/>
       </defs>
       <use xlink:href="#DejaVuSans-37"/>
       <use xlink:href="#DejaVuSans-2e" transform="translate(63.623047 0)"/>
       <use xlink:href="#DejaVuSans-35" transform="translate(95.410156 0)"/>
      </g>
     </g>
    </g>
    <g id="xtick_20">
     <g id="line2d_80">
      <path d="M 209.64317 390.04 
L 209.64317 221.4 
" clip-path="url(#p0a68e183bb)" style="fill: none; stroke: #b0b0b0; stroke-width: 0.8; stroke-linecap: square"/>
     </g>
     <g id="line2d_81">
      <g>
       <use xlink:href="#m6abe81435c" x="209.64317" y="390.04" style="stroke: #000000; stroke-width: 0.8"/>
      </g>
     </g>
     <g id="text_45">
      <!-- 10.0 -->
      <g transform="translate(198.510357 404.638438) scale(0.1 -0.1)">
       <use xlink:href="#DejaVuSans-31"/>
       <use xlink:href="#DejaVuSans-30" transform="translate(63.623047 0)"/>
       <use xlink:href="#DejaVuSans-2e" transform="translate(127.246094 0)"/>
       <use xlink:href="#DejaVuSans-30" transform="translate(159.033203 0)"/>
      </g>
     </g>
    </g>
    <g id="xtick_21">
     <g id="line2d_82">
      <path d="M 243.130269 390.04 
L 243.130269 221.4 
" clip-path="url(#p0a68e183bb)" style="fill: none; stroke: #b0b0b0; stroke-width: 0.8; stroke-linecap: square"/>
     </g>
     <g id="line2d_83">
      <g>
       <use xlink:href="#m6abe81435c" x="243.130269" y="390.04" style="stroke: #000000; stroke-width: 0.8"/>
      </g>
     </g>
     <g id="text_46">
      <!-- 12.5 -->
      <g transform="translate(231.997456 404.638438) scale(0.1 -0.1)">
       <use xlink:href="#DejaVuSans-31"/>
       <use xlink:href="#DejaVuSans-32" transform="translate(63.623047 0)"/>
       <use xlink:href="#DejaVuSans-2e" transform="translate(127.246094 0)"/>
       <use xlink:href="#DejaVuSans-35" transform="translate(159.033203 0)"/>
      </g>
     </g>
    </g>
    <g id="xtick_22">
     <g id="line2d_84">
      <path d="M 276.617368 390.04 
L 276.617368 221.4 
" clip-path="url(#p0a68e183bb)" style="fill: none; stroke: #b0b0b0; stroke-width: 0.8; stroke-linecap: square"/>
     </g>
     <g id="line2d_85">
      <g>
       <use xlink:href="#m6abe81435c" x="276.617368" y="390.04" style="stroke: #000000; stroke-width: 0.8"/>
      </g>
     </g>
     <g id="text_47">
      <!-- 15.0 -->
      <g transform="translate(265.484556 404.638438) scale(0.1 -0.1)">
       <use xlink:href="#DejaVuSans-31"/>
       <use xlink:href="#DejaVuSans-35" transform="translate(63.623047 0)"/>
       <use xlink:href="#DejaVuSans-2e" transform="translate(127.246094 0)"/>
       <use xlink:href="#DejaVuSans-30" transform="translate(159.033203 0)"/>
      </g>
     </g>
    </g>
    <g id="xtick_23">
     <g id="line2d_86">
      <path d="M 310.104468 390.04 
L 310.104468 221.4 
" clip-path="url(#p0a68e183bb)" style="fill: none; stroke: #b0b0b0; stroke-width: 0.8; stroke-linecap: square"/>
     </g>
     <g id="line2d_87">
      <g>
       <use xlink:href="#m6abe81435c" x="310.104468" y="390.04" style="stroke: #000000; stroke-width: 0.8"/>
      </g>
     </g>
     <g id="text_48">
      <!-- 17.5 -->
      <g transform="translate(298.971655 404.638438) scale(0.1 -0.1)">
       <use xlink:href="#DejaVuSans-31"/>
       <use xlink:href="#DejaVuSans-37" transform="translate(63.623047 0)"/>
       <use xlink:href="#DejaVuSans-2e" transform="translate(127.246094 0)"/>
       <use xlink:href="#DejaVuSans-35" transform="translate(159.033203 0)"/>
      </g>
     </g>
    </g>
    <g id="xtick_24">
     <g id="line2d_88">
      <path d="M 343.591567 390.04 
L 343.591567 221.4 
" clip-path="url(#p0a68e183bb)" style="fill: none; stroke: #b0b0b0; stroke-width: 0.8; stroke-linecap: square"/>
     </g>
     <g id="line2d_89">
      <g>
       <use xlink:href="#m6abe81435c" x="343.591567" y="390.04" style="stroke: #000000; stroke-width: 0.8"/>
      </g>
     </g>
     <g id="text_49">
      <!-- 20.0 -->
      <g transform="translate(332.458754 404.638438) scale(0.1 -0.1)">
       <use xlink:href="#DejaVuSans-32"/>
       <use xlink:href="#DejaVuSans-30" transform="translate(63.623047 0)"/>
       <use xlink:href="#DejaVuSans-2e" transform="translate(127.246094 0)"/>
       <use xlink:href="#DejaVuSans-30" transform="translate(159.033203 0)"/>
      </g>
     </g>
    </g>
    <g id="text_50">
     <!-- t -->
     <g transform="translate(207.682344 418.316562) scale(0.1 -0.1)">
      <use xlink:href="#DejaVuSans-74"/>
     </g>
    </g>
   </g>
   <g id="matplotlib.axis_8">
    <g id="ytick_20">
     <g id="line2d_90">
      <path d="M 62.3 369.795234 
L 356.985 369.795234 
" clip-path="url(#p0a68e183bb)" style="fill: none; stroke: #b0b0b0; stroke-width: 0.8; stroke-linecap: square"/>
     </g>
     <g id="line2d_91">
      <g>
       <use xlink:href="#mcf77b86fe5" x="62.3" y="369.795234" style="stroke: #000000; stroke-width: 0.8"/>
      </g>
     </g>
     <g id="text_51">
      <!-- −12.5 -->
      <g transform="translate(24.654688 373.594453) scale(0.1 -0.1)">
       <use xlink:href="#DejaVuSans-2212"/>
       <use xlink:href="#DejaVuSans-31" transform="translate(83.789062 0)"/>
       <use xlink:href="#DejaVuSans-32" transform="translate(147.412109 0)"/>
       <use xlink:href="#DejaVuSans-2e" transform="translate(211.035156 0)"/>
       <use xlink:href="#DejaVuSans-35" transform="translate(242.822266 0)"/>
      </g>
     </g>
    </g>
    <g id="ytick_21">
     <g id="line2d_92">
      <path d="M 62.3 348.416449 
L 356.985 348.416449 
" clip-path="url(#p0a68e183bb)" style="fill: none; stroke: #b0b0b0; stroke-width: 0.8; stroke-linecap: square"/>
     </g>
     <g id="line2d_93">
      <g>
       <use xlink:href="#mcf77b86fe5" x="62.3" y="348.416449" style="stroke: #000000; stroke-width: 0.8"/>
      </g>
     </g>
     <g id="text_52">
      <!-- −10.0 -->
      <g transform="translate(24.654688 352.215668) scale(0.1 -0.1)">
       <use xlink:href="#DejaVuSans-2212"/>
       <use xlink:href="#DejaVuSans-31" transform="translate(83.789062 0)"/>
       <use xlink:href="#DejaVuSans-30" transform="translate(147.412109 0)"/>
       <use xlink:href="#DejaVuSans-2e" transform="translate(211.035156 0)"/>
       <use xlink:href="#DejaVuSans-30" transform="translate(242.822266 0)"/>
      </g>
     </g>
    </g>
    <g id="ytick_22">
     <g id="line2d_94">
      <path d="M 62.3 327.037663 
L 356.985 327.037663 
" clip-path="url(#p0a68e183bb)" style="fill: none; stroke: #b0b0b0; stroke-width: 0.8; stroke-linecap: square"/>
     </g>
     <g id="line2d_95">
      <g>
       <use xlink:href="#mcf77b86fe5" x="62.3" y="327.037663" style="stroke: #000000; stroke-width: 0.8"/>
      </g>
     </g>
     <g id="text_53">
      <!-- −7.5 -->
      <g transform="translate(31.017188 330.836882) scale(0.1 -0.1)">
       <use xlink:href="#DejaVuSans-2212"/>
       <use xlink:href="#DejaVuSans-37" transform="translate(83.789062 0)"/>
       <use xlink:href="#DejaVuSans-2e" transform="translate(147.412109 0)"/>
       <use xlink:href="#DejaVuSans-35" transform="translate(179.199219 0)"/>
      </g>
     </g>
    </g>
    <g id="ytick_23">
     <g id="line2d_96">
      <path d="M 62.3 305.658878 
L 356.985 305.658878 
" clip-path="url(#p0a68e183bb)" style="fill: none; stroke: #b0b0b0; stroke-width: 0.8; stroke-linecap: square"/>
     </g>
     <g id="line2d_97">
      <g>
       <use xlink:href="#mcf77b86fe5" x="62.3" y="305.658878" style="stroke: #000000; stroke-width: 0.8"/>
      </g>
     </g>
     <g id="text_54">
      <!-- −5.0 -->
      <g transform="translate(31.017188 309.458096) scale(0.1 -0.1)">
       <use xlink:href="#DejaVuSans-2212"/>
       <use xlink:href="#DejaVuSans-35" transform="translate(83.789062 0)"/>
       <use xlink:href="#DejaVuSans-2e" transform="translate(147.412109 0)"/>
       <use xlink:href="#DejaVuSans-30" transform="translate(179.199219 0)"/>
      </g>
     </g>
    </g>
    <g id="ytick_24">
     <g id="line2d_98">
      <path d="M 62.3 284.280092 
L 356.985 284.280092 
" clip-path="url(#p0a68e183bb)" style="fill: none; stroke: #b0b0b0; stroke-width: 0.8; stroke-linecap: square"/>
     </g>
     <g id="line2d_99">
      <g>
       <use xlink:href="#mcf77b86fe5" x="62.3" y="284.280092" style="stroke: #000000; stroke-width: 0.8"/>
      </g>
     </g>
     <g id="text_55">
      <!-- −2.5 -->
      <g transform="translate(31.017188 288.079311) scale(0.1 -0.1)">
       <use xlink:href="#DejaVuSans-2212"/>
       <use xlink:href="#DejaVuSans-32" transform="translate(83.789062 0)"/>
       <use xlink:href="#DejaVuSans-2e" transform="translate(147.412109 0)"/>
       <use xlink:href="#DejaVuSans-35" transform="translate(179.199219 0)"/>
      </g>
     </g>
    </g>
    <g id="ytick_25">
     <g id="line2d_100">
      <path d="M 62.3 262.901307 
L 356.985 262.901307 
" clip-path="url(#p0a68e183bb)" style="fill: none; stroke: #b0b0b0; stroke-width: 0.8; stroke-linecap: square"/>
     </g>
     <g id="line2d_101">
      <g>
       <use xlink:href="#mcf77b86fe5" x="62.3" y="262.901307" style="stroke: #000000; stroke-width: 0.8"/>
      </g>
     </g>
     <g id="text_56">
      <!-- 0.0 -->
      <g transform="translate(39.396875 266.700525) scale(0.1 -0.1)">
       <use xlink:href="#DejaVuSans-30"/>
       <use xlink:href="#DejaVuSans-2e" transform="translate(63.623047 0)"/>
       <use xlink:href="#DejaVuSans-30" transform="translate(95.410156 0)"/>
      </g>
     </g>
    </g>
    <g id="ytick_26">
     <g id="line2d_102">
      <path d="M 62.3 241.522521 
L 356.985 241.522521 
" clip-path="url(#p0a68e183bb)" style="fill: none; stroke: #b0b0b0; stroke-width: 0.8; stroke-linecap: square"/>
     </g>
     <g id="line2d_103">
      <g>
       <use xlink:href="#mcf77b86fe5" x="62.3" y="241.522521" style="stroke: #000000; stroke-width: 0.8"/>
      </g>
     </g>
     <g id="text_57">
      <!-- 2.5 -->
      <g transform="translate(39.396875 245.32174) scale(0.1 -0.1)">
       <use xlink:href="#DejaVuSans-32"/>
       <use xlink:href="#DejaVuSans-2e" transform="translate(63.623047 0)"/>
       <use xlink:href="#DejaVuSans-35" transform="translate(95.410156 0)"/>
      </g>
     </g>
    </g>
    <g id="text_58">
     <!-- $\omega(t)$ -->
     <g transform="translate(18.575 315.77) rotate(-90) scale(0.1 -0.1)">
      <defs>
       <path id="DejaVuSans-Oblique-3c9" d="M 1369 -91 
Q 72 -91 434 1766 
Q 575 2500 1256 3500 
L 1875 3500 
Q 1231 2500 1088 1750 
Q 819 397 1519 397 
Q 2166 397 2478 2078 
L 3009 2078 
Q 2669 388 3316 397 
Q 4013 403 4275 1750 
Q 4419 2500 4169 3500 
L 4788 3500 
Q 5075 2500 4934 1766 
Q 4578 -94 3278 -91 
Q 2428 -88 2503 844 
Q 2194 -91 1369 -91 
z
" transform="scale(0.015625)"/>
      </defs>
      <use xlink:href="#DejaVuSans-Oblique-3c9" transform="translate(0 0.125)"/>
      <use xlink:href="#DejaVuSans-28" transform="translate(83.740234 0.125)"/>
      <use xlink:href="#DejaVuSans-Oblique-74" transform="translate(122.753906 0.125)"/>
      <use xlink:href="#DejaVuSans-29" transform="translate(161.962891 0.125)"/>
     </g>
    </g>
   </g>
   <g id="line2d_104">
    <path d="M 75.694773 382.374545 
L 76.080544 314.212946 
L 76.414076 290.035728 
L 76.751626 279.751639 
L 77.097212 275.212361 
L 77.464231 273.041693 
L 78.084412 270.971062 
L 78.488936 269.105513 
L 78.873368 266.157567 
L 79.295306 261.021057 
L 79.801631 251.83661 
L 80.968321 229.50291 
L 81.112985 229.065679 
L 81.146472 229.095355 
L 81.245594 229.474192 
L 81.426425 231.241639 
L 81.735845 236.873566 
L 82.94272 261.043295 
L 83.325813 263.983385 
L 83.64595 264.993152 
L 83.909828 265.222551 
L 84.167009 265.156687 
L 84.614396 264.756794 
L 86.008799 263.449965 
L 87.119232 262.926509 
L 88.859221 262.328973 
L 89.708454 262.245595 
L 90.269698 262.40531 
L 90.737178 262.774515 
L 91.191263 263.435317 
L 91.676156 264.56691 
L 92.241418 266.505898 
L 93.081275 270.317603 
L 94.07919 274.569339 
L 94.593552 275.87684 
L 94.975305 276.32521 
L 95.271331 276.37066 
L 95.564678 276.176142 
L 95.937054 275.628588 
L 96.451416 274.42947 
L 97.24707 271.930305 
L 98.966967 266.446377 
L 99.650104 265.043413 
L 100.23144 264.317765 
L 100.771252 263.979569 
L 101.328477 263.890642 
L 101.994201 264.020796 
L 102.95729 264.460539 
L 105.025453 265.450083 
L 105.73538 265.508318 
L 106.387708 265.336099 
L 107.164609 264.880667 
L 108.658134 263.966347 
L 109.201964 263.921915 
L 109.690876 264.107797 
L 110.207917 264.556866 
L 110.832116 265.420096 
L 111.888969 267.346093 
L 112.760973 268.727525 
L 113.280693 269.172377 
L 113.695933 269.256284 
L 114.099118 269.105527 
L 114.579992 268.66572 
L 115.268487 267.695233 
L 117.755909 263.939231 
L 118.618537 263.14357 
L 119.399456 262.712955 
L 120.165641 262.541315 
L 121.056397 262.581395 
L 123.200911 262.772144 
L 123.979151 262.544567 
L 124.810971 262.057126 
L 127.606474 260.191559 
L 128.23871 260.181435 
L 128.904434 260.401026 
L 129.753667 260.936145 
L 132.869307 263.113715 
L 133.805606 263.383127 
L 134.799503 263.43097 
L 137.759762 263.404408 
L 138.730888 263.754919 
L 141.744727 265.039906 
L 142.508233 264.98053 
L 143.358805 264.680213 
L 144.664802 263.945915 
L 146.440958 262.999554 
L 147.528619 262.67872 
L 148.622977 262.592572 
L 152.243603 262.520673 
L 153.516112 262.073955 
L 155.395408 261.42036 
L 156.314294 261.358252 
L 157.239878 261.524828 
L 158.458808 261.993207 
L 160.877916 262.952427 
L 162.068718 263.14851 
L 163.495268 263.1388 
L 165.586202 263.135387 
L 166.845317 263.386867 
L 170.068116 264.172724 
L 171.079426 264.075949 
L 172.318449 263.716087 
L 175.210395 262.803512 
L 176.52175 262.685946 
L 180.801401 262.52197 
L 184.322904 261.842733 
L 185.453429 261.978503 
L 187.040717 262.423756 
L 189.128973 262.964946 
L 190.544807 263.084353 
L 194.934296 263.250488 
L 198.313814 263.813608 
L 199.532745 263.690171 
L 201.312919 263.25048 
L 203.315447 262.82449 
L 204.854515 262.741 
L 208.587656 262.656565 
L 212.91285 262.126585 
L 214.346098 262.357283 
L 217.842151 263.01348 
L 219.663849 263.027086 
L 222.15395 263.066152 
L 224.122991 263.37 
L 226.090693 263.610586 
L 227.458307 263.540012 
L 229.324208 263.189427 
L 231.571862 262.822639 
L 233.370789 262.780517 
L 236.388646 262.732965 
L 238.94974 262.360087 
L 240.563818 262.260532 
L 242.057342 262.402451 
L 246.659809 263.016014 
L 251.372114 263.167253 
L 254.482396 263.486036 
L 256.033518 263.364017 
L 260.890487 262.795719 
L 265.143349 262.688963 
L 268.785405 262.369699 
L 270.471816 262.532485 
L 274.349622 262.992044 
L 280.497853 263.257683 
L 282.592806 263.396706 
L 284.297969 263.269576 
L 288.745056 262.811771 
L 293.683734 262.666933 
L 296.669443 262.441407 
L 298.454975 262.57412 
L 302.664974 262.983807 
L 308.006836 263.151653 
L 310.700538 263.330828 
L 312.554384 263.199047 
L 316.679994 262.824215 
L 322.138391 262.656099 
L 324.78923 262.499119 
L 326.728803 262.638098 
L 330.626701 262.972841 
L 336.44542 263.158547 
L 338.915428 263.278446 
L 340.958141 263.127347 
L 343.590227 262.869412 
L 343.590227 262.869412 
" clip-path="url(#p0a68e183bb)" style="fill: none; stroke: #1f77b4; stroke-width: 1.5; stroke-linecap: square"/>
   </g>
   <g id="patch_18">
    <path d="M 62.3 390.04 
L 62.3 221.4 
" style="fill: none; stroke: #000000; stroke-width: 0.8; stroke-linejoin: miter; stroke-linecap: square"/>
   </g>
   <g id="patch_19">
    <path d="M 356.985 390.04 
L 356.985 221.4 
" style="fill: none; stroke: #000000; stroke-width: 0.8; stroke-linejoin: miter; stroke-linecap: square"/>
   </g>
   <g id="patch_20">
    <path d="M 62.3 390.04 
L 356.985 390.04 
" style="fill: none; stroke: #000000; stroke-width: 0.8; stroke-linejoin: miter; stroke-linecap: square"/>
   </g>
   <g id="patch_21">
    <path d="M 62.3 221.4 
L 356.985 221.4 
" style="fill: none; stroke: #000000; stroke-width: 0.8; stroke-linejoin: miter; stroke-linecap: square"/>
   </g>
  </g>
  <g id="axes_5">
   <g id="patch_22">
    <path d="M 414.515 390.04 
L 709.2 390.04 
L 709.2 221.4 
L 414.515 221.4 
z
" style="fill: #ffffff"/>
   </g>
   <g id="matplotlib.axis_9">
    <g id="xtick_25">
     <g id="line2d_105">
      <path d="M 427.909773 390.04 
L 427.909773 221.4 
" clip-path="url(#pc13d573860)" style="fill: none; stroke: #b0b0b0; stroke-width: 0.8; stroke-linecap: square"/>
     </g>
     <g id="line2d_106">
      <g>
       <use xlink:href="#m6abe81435c" x="427.909773" y="390.04" style="stroke: #000000; stroke-width: 0.8"/>
      </g>
     </g>
     <g id="text_59">
      <!-- 0.0 -->
      <g transform="translate(419.95821 404.638438) scale(0.1 -0.1)">
       <use xlink:href="#DejaVuSans-30"/>
       <use xlink:href="#DejaVuSans-2e" transform="translate(63.623047 0)"/>
       <use xlink:href="#DejaVuSans-30" transform="translate(95.410156 0)"/>
      </g>
     </g>
    </g>
    <g id="xtick_26">
     <g id="line2d_107">
      <path d="M 461.396872 390.04 
L 461.396872 221.4 
" clip-path="url(#pc13d573860)" style="fill: none; stroke: #b0b0b0; stroke-width: 0.8; stroke-linecap: square"/>
     </g>
     <g id="line2d_108">
      <g>
       <use xlink:href="#m6abe81435c" x="461.396872" y="390.04" style="stroke: #000000; stroke-width: 0.8"/>
      </g>
     </g>
     <g id="text_60">
      <!-- 2.5 -->
      <g transform="translate(453.445309 404.638438) scale(0.1 -0.1)">
       <use xlink:href="#DejaVuSans-32"/>
       <use xlink:href="#DejaVuSans-2e" transform="translate(63.623047 0)"/>
       <use xlink:href="#DejaVuSans-35" transform="translate(95.410156 0)"/>
      </g>
     </g>
    </g>
    <g id="xtick_27">
     <g id="line2d_109">
      <path d="M 494.883971 390.04 
L 494.883971 221.4 
" clip-path="url(#pc13d573860)" style="fill: none; stroke: #b0b0b0; stroke-width: 0.8; stroke-linecap: square"/>
     </g>
     <g id="line2d_110">
      <g>
       <use xlink:href="#m6abe81435c" x="494.883971" y="390.04" style="stroke: #000000; stroke-width: 0.8"/>
      </g>
     </g>
     <g id="text_61">
      <!-- 5.0 -->
      <g transform="translate(486.932409 404.638438) scale(0.1 -0.1)">
       <use xlink:href="#DejaVuSans-35"/>
       <use xlink:href="#DejaVuSans-2e" transform="translate(63.623047 0)"/>
       <use xlink:href="#DejaVuSans-30" transform="translate(95.410156 0)"/>
      </g>
     </g>
    </g>
    <g id="xtick_28">
     <g id="line2d_111">
      <path d="M 528.37107 390.04 
L 528.37107 221.4 
" clip-path="url(#pc13d573860)" style="fill: none; stroke: #b0b0b0; stroke-width: 0.8; stroke-linecap: square"/>
     </g>
     <g id="line2d_112">
      <g>
       <use xlink:href="#m6abe81435c" x="528.37107" y="390.04" style="stroke: #000000; stroke-width: 0.8"/>
      </g>
     </g>
     <g id="text_62">
      <!-- 7.5 -->
      <g transform="translate(520.419508 404.638438) scale(0.1 -0.1)">
       <use xlink:href="#DejaVuSans-37"/>
       <use xlink:href="#DejaVuSans-2e" transform="translate(63.623047 0)"/>
       <use xlink:href="#DejaVuSans-35" transform="translate(95.410156 0)"/>
      </g>
     </g>
    </g>
    <g id="xtick_29">
     <g id="line2d_113">
      <path d="M 561.85817 390.04 
L 561.85817 221.4 
" clip-path="url(#pc13d573860)" style="fill: none; stroke: #b0b0b0; stroke-width: 0.8; stroke-linecap: square"/>
     </g>
     <g id="line2d_114">
      <g>
       <use xlink:href="#m6abe81435c" x="561.85817" y="390.04" style="stroke: #000000; stroke-width: 0.8"/>
      </g>
     </g>
     <g id="text_63">
      <!-- 10.0 -->
      <g transform="translate(550.725357 404.638438) scale(0.1 -0.1)">
       <use xlink:href="#DejaVuSans-31"/>
       <use xlink:href="#DejaVuSans-30" transform="translate(63.623047 0)"/>
       <use xlink:href="#DejaVuSans-2e" transform="translate(127.246094 0)"/>
       <use xlink:href="#DejaVuSans-30" transform="translate(159.033203 0)"/>
      </g>
     </g>
    </g>
    <g id="xtick_30">
     <g id="line2d_115">
      <path d="M 595.345269 390.04 
L 595.345269 221.4 
" clip-path="url(#pc13d573860)" style="fill: none; stroke: #b0b0b0; stroke-width: 0.8; stroke-linecap: square"/>
     </g>
     <g id="line2d_116">
      <g>
       <use xlink:href="#m6abe81435c" x="595.345269" y="390.04" style="stroke: #000000; stroke-width: 0.8"/>
      </g>
     </g>
     <g id="text_64">
      <!-- 12.5 -->
      <g transform="translate(584.212456 404.638438) scale(0.1 -0.1)">
       <use xlink:href="#DejaVuSans-31"/>
       <use xlink:href="#DejaVuSans-32" transform="translate(63.623047 0)"/>
       <use xlink:href="#DejaVuSans-2e" transform="translate(127.246094 0)"/>
       <use xlink:href="#DejaVuSans-35" transform="translate(159.033203 0)"/>
      </g>
     </g>
    </g>
    <g id="xtick_31">
     <g id="line2d_117">
      <path d="M 628.832368 390.04 
L 628.832368 221.4 
" clip-path="url(#pc13d573860)" style="fill: none; stroke: #b0b0b0; stroke-width: 0.8; stroke-linecap: square"/>
     </g>
     <g id="line2d_118">
      <g>
       <use xlink:href="#m6abe81435c" x="628.832368" y="390.04" style="stroke: #000000; stroke-width: 0.8"/>
      </g>
     </g>
     <g id="text_65">
      <!-- 15.0 -->
      <g transform="translate(617.699556 404.638438) scale(0.1 -0.1)">
       <use xlink:href="#DejaVuSans-31"/>
       <use xlink:href="#DejaVuSans-35" transform="translate(63.623047 0)"/>
       <use xlink:href="#DejaVuSans-2e" transform="translate(127.246094 0)"/>
       <use xlink:href="#DejaVuSans-30" transform="translate(159.033203 0)"/>
      </g>
     </g>
    </g>
    <g id="xtick_32">
     <g id="line2d_119">
      <path d="M 662.319468 390.04 
L 662.319468 221.4 
" clip-path="url(#pc13d573860)" style="fill: none; stroke: #b0b0b0; stroke-width: 0.8; stroke-linecap: square"/>
     </g>
     <g id="line2d_120">
      <g>
       <use xlink:href="#m6abe81435c" x="662.319468" y="390.04" style="stroke: #000000; stroke-width: 0.8"/>
      </g>
     </g>
     <g id="text_66">
      <!-- 17.5 -->
      <g transform="translate(651.186655 404.638438) scale(0.1 -0.1)">
       <use xlink:href="#DejaVuSans-31"/>
       <use xlink:href="#DejaVuSans-37" transform="translate(63.623047 0)"/>
       <use xlink:href="#DejaVuSans-2e" transform="translate(127.246094 0)"/>
       <use xlink:href="#DejaVuSans-35" transform="translate(159.033203 0)"/>
      </g>
     </g>
    </g>
    <g id="xtick_33">
     <g id="line2d_121">
      <path d="M 695.806567 390.04 
L 695.806567 221.4 
" clip-path="url(#pc13d573860)" style="fill: none; stroke: #b0b0b0; stroke-width: 0.8; stroke-linecap: square"/>
     </g>
     <g id="line2d_122">
      <g>
       <use xlink:href="#m6abe81435c" x="695.806567" y="390.04" style="stroke: #000000; stroke-width: 0.8"/>
      </g>
     </g>
     <g id="text_67">
      <!-- 20.0 -->
      <g transform="translate(684.673754 404.638438) scale(0.1 -0.1)">
       <use xlink:href="#DejaVuSans-32"/>
       <use xlink:href="#DejaVuSans-30" transform="translate(63.623047 0)"/>
       <use xlink:href="#DejaVuSans-2e" transform="translate(127.246094 0)"/>
       <use xlink:href="#DejaVuSans-30" transform="translate(159.033203 0)"/>
      </g>
     </g>
    </g>
    <g id="text_68">
     <!-- t -->
     <g transform="translate(559.897344 418.316562) scale(0.1 -0.1)">
      <use xlink:href="#DejaVuSans-74"/>
     </g>
    </g>
   </g>
   <g id="matplotlib.axis_10">
    <g id="ytick_27">
     <g id="line2d_123">
      <path d="M 414.515 384.743038 
L 709.2 384.743038 
" clip-path="url(#pc13d573860)" style="fill: none; stroke: #b0b0b0; stroke-width: 0.8; stroke-linecap: square"/>
     </g>
     <g id="line2d_124">
      <g>
       <use xlink:href="#mcf77b86fe5" x="414.515" y="384.743038" style="stroke: #000000; stroke-width: 0.8"/>
      </g>
     </g>
     <g id="text_69">
      <!-- −2.0 -->
      <g transform="translate(383.232188 388.542257) scale(0.1 -0.1)">
       <use xlink:href="#DejaVuSans-2212"/>
       <use xlink:href="#DejaVuSans-32" transform="translate(83.789062 0)"/>
       <use xlink:href="#DejaVuSans-2e" transform="translate(147.412109 0)"/>
       <use xlink:href="#DejaVuSans-30" transform="translate(179.199219 0)"/>
      </g>
     </g>
    </g>
    <g id="ytick_28">
     <g id="line2d_125">
      <path d="M 414.515 356.830656 
L 709.2 356.830656 
" clip-path="url(#pc13d573860)" style="fill: none; stroke: #b0b0b0; stroke-width: 0.8; stroke-linecap: square"/>
     </g>
     <g id="line2d_126">
      <g>
       <use xlink:href="#mcf77b86fe5" x="414.515" y="356.830656" style="stroke: #000000; stroke-width: 0.8"/>
      </g>
     </g>
     <g id="text_70">
      <!-- −1.5 -->
      <g transform="translate(383.232188 360.629874) scale(0.1 -0.1)">
       <use xlink:href="#DejaVuSans-2212"/>
       <use xlink:href="#DejaVuSans-31" transform="translate(83.789062 0)"/>
       <use xlink:href="#DejaVuSans-2e" transform="translate(147.412109 0)"/>
       <use xlink:href="#DejaVuSans-35" transform="translate(179.199219 0)"/>
      </g>
     </g>
    </g>
    <g id="ytick_29">
     <g id="line2d_127">
      <path d="M 414.515 328.918273 
L 709.2 328.918273 
" clip-path="url(#pc13d573860)" style="fill: none; stroke: #b0b0b0; stroke-width: 0.8; stroke-linecap: square"/>
     </g>
     <g id="line2d_128">
      <g>
       <use xlink:href="#mcf77b86fe5" x="414.515" y="328.918273" style="stroke: #000000; stroke-width: 0.8"/>
      </g>
     </g>
     <g id="text_71">
      <!-- −1.0 -->
      <g transform="translate(383.232188 332.717492) scale(0.1 -0.1)">
       <use xlink:href="#DejaVuSans-2212"/>
       <use xlink:href="#DejaVuSans-31" transform="translate(83.789062 0)"/>
       <use xlink:href="#DejaVuSans-2e" transform="translate(147.412109 0)"/>
       <use xlink:href="#DejaVuSans-30" transform="translate(179.199219 0)"/>
      </g>
     </g>
    </g>
    <g id="ytick_30">
     <g id="line2d_129">
      <path d="M 414.515 301.005891 
L 709.2 301.005891 
" clip-path="url(#pc13d573860)" style="fill: none; stroke: #b0b0b0; stroke-width: 0.8; stroke-linecap: square"/>
     </g>
     <g id="line2d_130">
      <g>
       <use xlink:href="#mcf77b86fe5" x="414.515" y="301.005891" style="stroke: #000000; stroke-width: 0.8"/>
      </g>
     </g>
     <g id="text_72">
      <!-- −0.5 -->
      <g transform="translate(383.232188 304.80511) scale(0.1 -0.1)">
       <use xlink:href="#DejaVuSans-2212"/>
       <use xlink:href="#DejaVuSans-30" transform="translate(83.789062 0)"/>
       <use xlink:href="#DejaVuSans-2e" transform="translate(147.412109 0)"/>
       <use xlink:href="#DejaVuSans-35" transform="translate(179.199219 0)"/>
      </g>
     </g>
    </g>
    <g id="ytick_31">
     <g id="line2d_131">
      <path d="M 414.515 273.093508 
L 709.2 273.093508 
" clip-path="url(#pc13d573860)" style="fill: none; stroke: #b0b0b0; stroke-width: 0.8; stroke-linecap: square"/>
     </g>
     <g id="line2d_132">
      <g>
       <use xlink:href="#mcf77b86fe5" x="414.515" y="273.093508" style="stroke: #000000; stroke-width: 0.8"/>
      </g>
     </g>
     <g id="text_73">
      <!-- 0.0 -->
      <g transform="translate(391.611875 276.892727) scale(0.1 -0.1)">
       <use xlink:href="#DejaVuSans-30"/>
       <use xlink:href="#DejaVuSans-2e" transform="translate(63.623047 0)"/>
       <use xlink:href="#DejaVuSans-30" transform="translate(95.410156 0)"/>
      </g>
     </g>
    </g>
    <g id="ytick_32">
     <g id="line2d_133">
      <path d="M 414.515 245.181126 
L 709.2 245.181126 
" clip-path="url(#pc13d573860)" style="fill: none; stroke: #b0b0b0; stroke-width: 0.8; stroke-linecap: square"/>
     </g>
     <g id="line2d_134">
      <g>
       <use xlink:href="#mcf77b86fe5" x="414.515" y="245.181126" style="stroke: #000000; stroke-width: 0.8"/>
      </g>
     </g>
     <g id="text_74">
      <!-- 0.5 -->
      <g transform="translate(391.611875 248.980345) scale(0.1 -0.1)">
       <use xlink:href="#DejaVuSans-30"/>
       <use xlink:href="#DejaVuSans-2e" transform="translate(63.623047 0)"/>
       <use xlink:href="#DejaVuSans-35" transform="translate(95.410156 0)"/>
      </g>
     </g>
    </g>
    <g id="text_75">
     <!-- $\nu(t)$ -->
     <g transform="translate(377.1525 314.42) rotate(-90) scale(0.1 -0.1)">
      <defs>
       <path id="DejaVuSans-Oblique-3bd" d="M 959 0 
L 572 3500 
L 1191 3500 
L 1522 563 
Q 1972 950 2391 1488 
Q 2706 1891 2788 2241 
Q 2825 2406 2809 2719 
Q 2794 3091 2544 3500 
L 3125 3500 
L 3125 3500 
Q 3288 3222 3353 2834 
Q 3416 2478 3369 2234 
Q 3250 1622 2719 1075 
Q 2025 363 1572 0 
L 959 0 
z
" transform="scale(0.015625)"/>
      </defs>
      <use xlink:href="#DejaVuSans-Oblique-3bd" transform="translate(0 0.125)"/>
      <use xlink:href="#DejaVuSans-28" transform="translate(55.859375 0.125)"/>
      <use xlink:href="#DejaVuSans-Oblique-74" transform="translate(94.873047 0.125)"/>
      <use xlink:href="#DejaVuSans-29" transform="translate(134.082031 0.125)"/>
     </g>
    </g>
   </g>
   <g id="line2d_135">
    <path d="M 427.909773 274.438363 
L 430.579364 314.876231 
L 432.405081 345.907553 
L 434.222761 376.546918 
L 434.706314 381.219035 
L 434.995643 382.333029 
L 435.102802 382.357724 
L 435.130931 382.326999 
L 435.267558 381.950159 
L 435.480536 380.584203 
L 435.78192 376.989061 
L 436.191802 369.089993 
L 436.775817 352.978414 
L 439.231091 279.823722 
L 439.829841 270.293821 
L 440.321431 265.60338 
L 440.715239 263.668696 
L 441.005908 263.136014 
L 441.196114 263.142866 
L 441.401055 263.424959 
L 441.702439 264.28296 
L 442.148487 266.316102 
L 442.826266 270.574495 
L 443.955451 279.272835 
L 445.597659 293.693223 
L 447.242545 310.152057 
L 449.459391 332.368169 
L 450.209502 337.61144 
L 450.772085 340.151043 
L 451.196702 341.184395 
L 451.498085 341.438025 
L 451.721779 341.363912 
L 451.974942 341.006828 
L 452.303115 340.106226 
L 452.718355 338.246652 
L 453.228699 334.845949 
L 453.852898 329.054884 
L 454.664626 319.237667 
L 458.214258 273.428695 
L 459.488107 261.681061 
L 461.127636 248.690526 
L 462.54481 239.022924 
L 463.495843 233.930667 
L 464.219165 231.159706 
L 464.789785 229.762397 
L 465.234494 229.189348 
L 465.577401 229.065979 
L 465.881464 229.192901 
L 466.221693 229.601995 
L 466.635594 230.484853 
L 467.1379 232.129184 
L 467.742008 234.930972 
L 468.480063 239.495843 
L 469.459226 247.085835 
L 473.975966 284.061419 
L 475.686487 295.309532 
L 476.882646 301.847168 
L 477.757329 305.498013 
L 478.444484 307.499996 
L 478.990994 308.479963 
L 479.420968 308.847716 
L 479.769234 308.877607 
L 480.106784 308.673748 
L 480.493895 308.154708 
L 480.961375 307.119794 
L 481.525298 305.283165 
L 482.208434 302.237532 
L 483.068383 297.299007 
L 484.344911 288.496582 
L 487.396256 267.178369 
L 489.144282 256.724975 
L 490.462335 250.063441 
L 491.428103 246.233286 
L 492.186251 244.057198 
L 492.797055 242.914943 
L 493.288646 242.418455 
L 493.689152 242.30178 
L 494.05617 242.425621 
L 494.455336 242.81314 
L 494.924156 243.605567 
L 495.48406 245.024918 
L 496.155142 247.379036 
L 496.980264 251.149476 
L 498.090696 257.369123 
L 503.274499 287.849515 
L 504.541651 293.560738 
L 505.492684 296.901652 
L 506.249493 298.815283 
L 506.862976 299.81753 
L 507.361264 300.247201 
L 507.777844 300.333947 
L 508.168973 300.186091 
L 508.596269 299.769038 
L 509.095896 298.943651 
L 509.689288 297.49876 
L 510.400554 295.136804 
L 511.281934 291.377722 
L 512.503543 285.088516 
L 517.110029 260.478256 
L 518.416026 254.967327 
L 519.396528 251.718656 
L 520.178787 249.833865 
L 520.816381 248.826241 
L 521.33878 248.377749 
L 521.77947 248.271824 
L 522.192031 248.401983 
L 522.6354 248.790415 
L 523.148422 249.559927 
L 523.753869 250.900818 
L 524.477191 253.083667 
L 525.369287 256.537499 
L 526.588217 262.237188 
L 531.537611 286.340926 
L 532.728412 290.733016 
L 533.648637 293.342179 
L 534.392051 294.836726 
L 535.002856 295.609939 
L 535.51052 295.924186 
L 535.95255 295.948997 
L 536.387882 295.744636 
L 536.867417 295.256474 
L 537.424643 294.346651 
L 538.082329 292.814658 
L 538.873964 290.364166 
L 539.87188 286.492187 
L 541.354689 279.732124 
L 544.874852 263.482265 
L 546.245145 258.265911 
L 547.272529 255.164927 
L 548.093632 253.338704 
L 548.767393 252.336817 
L 549.327297 251.86905 
L 549.805493 251.740622 
L 550.252881 251.850009 
L 550.724379 252.206338 
L 551.261512 252.911452 
L 551.88973 254.13019 
L 552.637162 256.1004 
L 553.556048 259.196552 
L 554.800429 264.247888 
L 559.871715 285.701264 
L 560.987505 289.152016 
L 561.868886 291.210349 
L 562.590867 292.377659 
L 563.190956 292.960992 
L 563.7013 293.169008 
L 564.166101 293.123634 
L 564.640278 292.845313 
L 565.169374 292.259637 
L 565.782858 291.2251 
L 566.508858 289.533061 
L 567.390239 286.872562 
L 568.539516 282.633627 
L 570.594284 274.024311 
L 572.947758 264.491496 
L 574.304655 259.873458 
L 575.32936 257.116421 
L 576.155822 255.4829 
L 576.838958 254.585977 
L 577.412258 254.171396 
L 577.911885 254.069808 
L 578.387402 254.200735 
L 578.891048 254.581653 
L 579.463008 255.312694 
L 580.130071 256.552817 
L 580.923045 258.530029 
L 581.904887 261.620592 
L 583.2725 266.737817 
L 587.600373 283.413697 
L 588.791174 286.942827 
L 589.724794 289.064974 
L 590.48964 290.293378 
L 591.128573 290.931615 
L 591.673743 291.183279 
L 592.168013 291.173173 
L 592.663622 290.934017 
L 593.207453 290.409296 
L 593.831652 289.476395 
L 594.56435 287.953833 
L 595.449749 285.564073 
L 596.590989 281.789124 
L 598.487698 274.61145 
L 601.047452 265.12391 
L 602.388276 260.978569 
L 603.408962 258.493942 
L 604.236764 257.021199 
L 604.925258 256.215268 
L 605.509273 255.849161 
L 606.026314 255.7756 
L 606.527281 255.931287 
L 607.060396 256.34174 
L 607.664503 257.10659 
L 608.367732 258.381278 
L 609.206249 260.394574 
L 610.255065 263.536321 
L 611.775379 268.8764 
L 615.361178 281.654133 
L 616.624311 285.260517 
L 617.603474 287.431942 
L 618.404486 288.707865 
L 619.075567 289.390481 
L 619.650206 289.679453 
L 620.169925 289.700057 
L 620.684287 289.493582 
L 621.241513 289.016775 
L 621.875089 288.162246 
L 622.614484 286.766489 
L 623.503901 284.578711 
L 624.639783 281.145566 
L 626.450766 274.852629 
L 629.16456 265.542741 
L 630.486631 261.788228 
L 631.50062 259.530957 
L 632.327082 258.194185 
L 633.019595 257.465629 
L 633.612987 257.142831 
L 634.146101 257.096777 
L 634.6685 257.277662 
L 635.228404 257.718591 
L 635.86198 258.518921 
L 636.598696 259.831736 
L 637.480077 261.88782 
L 638.597206 265.102931 
L 640.311746 270.810126 
L 643.251913 280.559698 
L 644.55791 284.113666 
L 645.563863 286.25213 
L 646.387645 287.518498 
L 647.080158 288.204453 
L 647.676229 288.501551 
L 648.216041 288.530189 
L 648.749155 288.332465 
L 649.322455 287.871008 
L 649.972104 287.044317 
L 650.727573 285.699423 
L 651.634404 283.599938 
L 652.794397 280.307839 
L 654.666996 274.215008 
L 657.258897 265.930524 
L 658.570252 262.465454 
L 659.581562 260.377955 
L 660.409363 259.142695 
L 661.107235 258.472512 
L 661.710002 258.183149 
L 662.257851 258.159098 
L 662.801682 258.361894 
L 663.385697 258.829091 
L 664.046062 259.660086 
L 664.814926 261.008927 
L 665.737831 263.107935 
L 666.924613 266.405395 
L 668.90705 272.688601 
L 671.315442 280.118707 
L 672.620099 283.449283 
L 673.628731 285.456161 
L 674.456532 286.64293 
L 675.155742 287.283757 
L 675.762529 287.555979 
L 676.318414 287.56789 
L 676.871621 287.352908 
L 677.467692 286.870477 
L 678.141452 286.021252 
L 678.92639 284.650513 
L 679.872065 282.520157 
L 681.097693 279.164335 
L 683.302484 272.336665 
L 685.4403 266.006863 
L 686.719508 262.877526 
L 687.716084 260.987357 
L 688.537187 259.873647 
L 689.233719 259.278453 
L 689.841845 259.035518 
L 690.403088 259.04563 
L 690.967011 259.283324 
L 691.576476 259.793561 
L 692.26765 260.680041 
L 693.074019 262.099444 
L 694.050503 264.300051 
L 695.335068 267.791633 
L 695.805227 269.17936 
L 695.805227 269.17936 
" clip-path="url(#pc13d573860)" style="fill: none; stroke: #1f77b4; stroke-width: 1.5; stroke-linecap: square"/>
   </g>
   <g id="patch_23">
    <path d="M 414.515 390.04 
L 414.515 221.4 
" style="fill: none; stroke: #000000; stroke-width: 0.8; stroke-linejoin: miter; stroke-linecap: square"/>
   </g>
   <g id="patch_24">
    <path d="M 709.2 390.04 
L 709.2 221.4 
" style="fill: none; stroke: #000000; stroke-width: 0.8; stroke-linejoin: miter; stroke-linecap: square"/>
   </g>
   <g id="patch_25">
    <path d="M 414.515 390.04 
L 709.2 390.04 
" style="fill: none; stroke: #000000; stroke-width: 0.8; stroke-linejoin: miter; stroke-linecap: square"/>
   </g>
   <g id="patch_26">
    <path d="M 414.515 221.4 
L 709.2 221.4 
" style="fill: none; stroke: #000000; stroke-width: 0.8; stroke-linejoin: miter; stroke-linecap: square"/>
   </g>
  </g>
 </g>
 <defs>
  <clipPath id="p46248bc9d5">
   <rect x="62.3" y="10.8" width="177.28" height="168.64"/>
  </clipPath>
  <clipPath id="p353df6c6e3">
   <rect x="297.11" y="10.8" width="177.28" height="168.64"/>
  </clipPath>
  <clipPath id="p422335a337">
   <rect x="531.92" y="10.8" width="177.28" height="168.64"/>
  </clipPath>
  <clipPath id="p0a68e183bb">
   <rect x="62.3" y="221.4" width="294.685" height="168.64"/>
  </clipPath>
  <clipPath id="pc13d573860">
   <rect x="414.515" y="221.4" width="294.685" height="168.64"/>
  </clipPath>
 </defs>
</svg>
